<svg xmlns="http://www.w3.org/2000/svg" width="24" height="24" fill="none"><path fill="#3D0A91" fill-rule="evenodd" d="M14.5 1.3 12 0 9.5 1.3l-2.8.42-1.25 2.52-2 1.98L3.9 9l-.46 2.78 2 1.98 1.27 2.52 2.79.42L12 18l2.5-1.3 2.79-.42 1.26-2.52 2-1.98L20.1 9l.46-2.78-2-1.98-1.27-2.52-2.79-.42Zm1.8 1.79-2.27-.35L12 1.7 9.97 2.74 7.7 3.1 6.68 5.13 5.05 6.74 5.42 9l-.37 2.26 1.63 1.6 1.02 2.05 2.27.35L12 16.3l2.03-1.05 2.27-.35 1.02-2.04 1.63-1.61L18.58 9l.37-2.26-1.63-1.6-1.02-2.05Z" clip-rule="evenodd"/><path fill="#3D0A91" d="M6 17.7V24l6-1.5 6 1.5v-6.3l-3.03.45L12 19.69l-2.97-1.54L6 17.69Z"/></svg>