<svg xmlns="http://www.w3.org/2000/svg" width="24" height="24" fill="none"><path fill="#3D0A91" fill-rule="evenodd" d="M6.6 5.01A8.3 8.3 0 0 1 12 3c4.04 0 7.38 3 7.75 6.87A4.88 4.88 0 0 1 24 14.66a4.9 4.9 0 0 1-4.97 4.84H5.67A5.6 5.6 0 0 1 0 13.98c0-2.65 1.9-4.84 4.41-5.4a6.3 6.3 0 0 1 2.2-3.57Zm.99 1.14c-1.14.98-1.73 2.16-1.73 3.08v.67l-.67.08a4.08 4.08 0 0 0-3.69 4A4.1 4.1 0 0 0 5.67 18h13.36a3.4 3.4 0 0 0 3.47-3.34 3.4 3.4 0 0 0-3.47-3.34h-.75v-.75A6.17 6.17 0 0 0 12 4.5a6.8 6.8 0 0 0-4.41 1.65Z" clip-rule="evenodd"/></svg>