<svg xmlns="http://www.w3.org/2000/svg" width="24" height="25" fill="none"><g clip-path="url(#a)"><path fill="#3D0A91" fill-rule="evenodd" d="M6 9.5a3 3 0 1 0 0 6 3 3 0 0 0 0-6Zm3.94.82a4.5 4.5 0 0 0-8.38 1.43H.75a.75.75 0 1 0 0 1.5h.81a4.5 4.5 0 0 0 8.94-.75 1.5 1.5 0 1 1 3 0 4.5 4.5 0 0 0 8.94.75h.81a.75.75 0 0 0 0-1.5h-.81a4.5 4.5 0 0 0-8.38-1.43 2.99 2.99 0 0 0-4.12 0ZM21 12.5a3 3 0 1 0-6 0 3 3 0 0 0 6 0Z" clip-rule="evenodd"/></g><defs><clipPath id="a"><path fill="#fff" d="M0 .5h24v24H0z"/></clipPath></defs></svg>