<svg xmlns="http://www.w3.org/2000/svg" width="24" height="25" fill="none"><g clip-path="url(#a)"><path fill="#3D0A91" fill-rule="evenodd" d="m12 4.62-1.07-1.1C8.4.92 3.77 1.82 2.1 5.08c-.78 1.53-.96 3.75.47 6.58 1.38 2.72 4.25 5.98 9.43 9.53 5.18-3.55 8.05-6.81 9.43-9.53 1.43-2.83 1.26-5.05.47-6.58-1.67-3.26-6.3-4.16-8.82-1.57L12 4.62ZM12 23C-11 7.8 4.92-4.06 11.74 2.2l.26.26.27-.26C19.08-4.06 35 7.8 12 23Z" clip-rule="evenodd"/></g><defs><clipPath id="a"><path fill="#fff" d="M0 .5h24v24H0z"/></clipPath></defs></svg>