<svg xmlns="http://www.w3.org/2000/svg" width="120" height="120" fill="none"><path fill="#EFADCE" d="M85.95 1.1C85.25.4 84.3 0 83.3 0H36.7c-1 0-1.95.4-2.65 1.1L1.1 34.05C.4 34.75 0 35.7 0 36.7v46.6c0 1 .4 1.95 1.1 2.65l32.95 32.95c.7.7 1.65 1.1 2.65 1.1h46.6c1 0 1.95-.4 2.65-1.1l32.95-32.95c.7-.7 1.1-1.65 1.1-2.65V36.7c0-1-.4-1.95-1.1-2.65L85.95 1.1ZM41.22 45.24a1.78 1.78 0 0 1-1.8-1.85c.7-12.72 11.1-17.15 20.62-17.15 10.47 0 20.04 5.48 20.04 16.8 0 8.1-4.77 11.96-9.33 15.43-5.53 4.19-7.58 5.76-7.58 11.14v.79a1.87 1.87 0 0 1-1.87 1.88h-6.08a1.87 1.87 0 0 1-1.87-1.85l-.03-1.63c-.29-6.95 3.71-11.23 8.76-14.9 4.42-3.33 7.23-5.52 7.23-10.28 0-6.19-4.7-8.76-9.85-8.76-6.02 0-9.4 3.58-10.06 8.5-.14 1.03-.96 1.88-2 1.88h-6.18Zm17.44 48.32c-4.38 0-7.57-2.95-7.57-6.95 0-4.14 3.19-7.05 7.57-7.05 4.57 0 7.72 2.9 7.72 7.05 0 4-3.15 6.95-7.72 6.95Z"/></svg>