<svg xmlns="http://www.w3.org/2000/svg" width="90" height="90" fill="none"><path fill="#EFADCE" d="M39.38 7.95v3.3H11.25a5.62 5.62 0 0 0-5.63 5.63v11.25a5.63 5.63 0 0 0 5.63 5.62h28.13v5.63H14.05a5.63 5.63 0 0 0-4.5 2.24l-5.48 7.32a2.81 2.81 0 0 0 0 3.37l5.48 7.31a5.63 5.63 0 0 0 4.5 2.26h25.31V90h11.26V61.87h28.12a5.63 5.63 0 0 0 5.63-5.62V45a5.62 5.62 0 0 0-5.63-5.63H50.62v-5.62h25.32a5.62 5.62 0 0 0 4.5-2.25l5.48-7.31a2.81 2.81 0 0 0 0-3.38l-5.48-7.31a5.63 5.63 0 0 0-4.5-2.25H50.63v-3.3a5.62 5.62 0 1 0-11.26 0Zm36.56 8.93 4.22 5.62-4.22 5.63H11.25V16.88h64.69ZM78.75 45v11.25H14.06l-4.22-5.63L14.06 45h64.69Z"/></svg>