<svg xmlns="http://www.w3.org/2000/svg" width="24" height="24" fill="none"><g clip-path="url(#a)"><path fill="#561435" d="M0 1.72C0 .77.79 0 1.76 0h20.48C23.2 0 24 .77 24 1.72v20.56c0 .95-.79 1.72-1.76 1.72H1.76C.8 24 0 23.23 0 22.28V1.72Zm7.41 18.37V9.25h-3.6V20.1h3.6ZM5.61 7.77c1.26 0 2.04-.83 2.04-1.87-.02-1.06-.78-1.87-2.01-1.87-1.23 0-2.04.8-2.04 1.87 0 1.04.78 1.87 1.99 1.87h.02Zm7.37 12.32v-6.05c0-.33.02-.65.12-.88.26-.65.85-1.32 1.84-1.32 1.3 0 1.83 1 1.83 2.45v5.8h3.6v-6.21c0-3.34-1.78-4.88-4.15-4.88a3.58 3.58 0 0 0-3.24 1.79v.03h-.03l.03-.03V9.25h-3.6c.04 1.02 0 10.84 0 10.84h3.6Z"/></g><defs><clipPath id="a"><path fill="#fff" d="M0 0h24v24H0z"/></clipPath></defs></svg>