<svg xmlns="http://www.w3.org/2000/svg" width="24" height="24" fill="none"><g clip-path="url(#a)"><path fill="#561435" d="M20.4 3.49A11.78 11.78 0 0 0 12 0 11.92 11.92 0 0 0 1.67 17.84L0 24l6.3-1.65a11.92 11.92 0 0 0 16.68-15 11.84 11.84 0 0 0-2.58-3.86ZM12 21.79a9.86 9.86 0 0 1-5.04-1.39l-.36-.21-3.74.98 1-3.65-.24-.38a9.9 9.9 0 1 1 17.51-9.03A9.9 9.9 0 0 1 12 21.78Zm5.41-7.4c-.3-.16-1.75-.88-2.03-.98-.27-.1-.47-.15-.66.15-.2.3-.77.97-.94 1.16-.17.2-.35.22-.65.08-.3-.15-1.25-.46-2.39-1.48a9.07 9.07 0 0 1-1.65-2.06c-.17-.3-.02-.45.13-.6.13-.13.3-.35.44-.52.15-.17.2-.3.3-.5.1-.2.05-.37-.02-.52-.08-.15-.67-1.61-.92-2.2-.24-.59-.48-.5-.67-.51l-.57-.01a1.1 1.1 0 0 0-.79.37c-.27.3-1.04 1.01-1.04 2.48 0 1.46 1.07 2.87 1.22 3.07.15.2 2.09 3.2 5.07 4.5.7.3 1.26.48 1.7.62.7.23 1.35.2 1.87.12.57-.09 1.75-.72 2-1.42s.25-1.29.17-1.41c-.07-.13-.27-.2-.57-.35Z"/></g><defs><clipPath id="a"><path fill="#fff" d="M0 0h24v24H0z"/></clipPath></defs></svg>