<svg width="45" height="54" viewBox="0 0 45 54" fill="none" xmlns="http://www.w3.org/2000/svg">
<path d="M43.3771 18.4235C39.7788 20.6471 37.5564 24.4588 37.5564 28.6941C37.5564 33.4588 40.4138 37.8 44.7529 39.6C43.9062 42.3529 42.6363 44.8941 41.0488 47.2235C38.7205 50.5059 36.2864 53.8941 32.6881 53.8941C29.0898 53.8941 28.0315 51.7765 23.7983 51.7765C19.6709 51.7765 18.1892 54 14.8026 54C11.416 54 9.08773 50.9294 6.44195 47.1176C2.94951 41.8235 0.938717 35.6824 0.832886 29.2235C0.832886 18.7412 7.60609 13.1294 14.3793 13.1294C17.9776 13.1294 20.9408 15.4588 23.1633 15.4588C25.2799 15.4588 28.6665 13.0235 32.6881 13.0235C36.9214 12.9176 40.943 14.9294 43.3771 18.4235ZM30.7831 8.57647C32.5823 6.45882 33.5348 3.81176 33.6406 1.05882C33.6406 0.741176 33.6406 0.317647 33.5348 0C30.4657 0.317647 27.6082 1.8 25.5974 4.12941C23.7983 6.14118 22.74 8.68235 22.6341 11.4353C22.6341 11.7529 22.6341 12.0706 22.74 12.3882C22.9516 12.3882 23.2691 12.4941 23.4808 12.4941C26.3382 12.2824 28.984 10.8 30.7831 8.57647Z" fill="#A370F7"/>
</svg>
