<svg width="96" height="50" viewBox="0 0 96 50" fill="none" xmlns="http://www.w3.org/2000/svg">
<path d="M31.7555 33.1798H27.6013V49.616H31.7555V33.1798Z" fill="#A370F7"/>
<path d="M65.2968 37.8649C65.1429 37.7881 63.7582 37.0201 61.758 37.0201C59.0655 37.0201 57.2191 38.8634 57.2191 41.398C57.2191 43.8557 58.9885 45.7759 61.758 45.7759C63.6812 45.7759 65.066 45.0078 65.2968 44.931V49.3857C64.7582 49.4625 63.3735 49.9233 61.5272 49.9233C56.8345 49.9233 52.7572 46.6975 52.7572 41.398C52.7572 36.4825 56.4499 32.8726 61.5272 32.8726C63.4504 32.8726 64.9121 33.3334 65.2968 33.4871V37.8649Z" fill="#A370F7"/>
<path d="M21.8316 37.8648C21.6777 37.788 20.293 37.02 18.3697 37.02C15.6772 37.02 13.8309 38.8633 13.8309 41.3979C13.8309 43.8556 15.6003 45.7757 18.3697 45.7757C20.293 45.7757 21.6777 45.0077 21.8316 44.9309V49.3856C21.2931 49.5392 19.9083 50 18.062 50C13.3693 50 9.29205 46.7742 9.29205 41.4747C9.29205 36.5591 12.9847 32.9493 18.062 32.9493C19.9853 32.9493 21.4469 33.4101 21.8316 33.5637V37.8648Z" fill="#A370F7"/>
<path d="M87.0678 41.398C87.0678 46.0831 83.4521 49.9233 78.3748 49.9233C73.2974 49.9233 69.6817 46.0831 69.6817 41.398C69.6817 36.7129 73.2974 32.8726 78.3748 32.8726C83.4521 32.8726 87.0678 36.7129 87.0678 41.398ZM78.3748 37.0969C75.913 37.0969 74.0667 39.017 74.0667 41.398C74.0667 43.7789 75.913 45.699 78.3748 45.699C80.8365 45.699 82.6828 43.7789 82.6828 41.398C82.6828 39.017 80.8365 37.0969 78.3748 37.0969Z" fill="#A370F7"/>
<path d="M47.526 36.9433C47.4491 36.9433 45.6797 36.4056 44.295 36.4056C42.6025 36.4056 41.7563 36.9433 41.7563 37.7881C41.7563 38.7866 42.9872 39.1706 43.6796 39.3242L44.8335 39.7083C47.526 40.5531 48.7569 42.3964 48.7569 44.3934C48.7569 48.5408 45.1412 49.9233 41.9102 49.9233C39.6792 49.9233 37.6021 49.5393 37.4483 49.4625V45.699C37.8329 45.7759 39.5254 46.3135 41.3717 46.3135C43.4488 46.3135 44.3719 45.699 44.3719 44.7774C44.3719 43.9325 43.5257 43.4717 42.5256 43.1645C42.2948 43.0877 41.9102 42.9341 41.6025 42.8573C39.2946 42.0892 37.3713 40.7835 37.3713 38.0186C37.3713 34.9464 39.6792 32.8726 43.5257 32.8726C45.5259 32.8726 47.4491 33.3334 47.603 33.4103V36.9433H47.526Z" fill="#A370F7"/>
<path d="M4.90706 15.5146C4.90706 14.3625 3.98391 13.4408 2.82997 13.4408C1.67602 13.4408 0.752869 14.3625 0.752869 15.5146V19.8156C0.752869 20.9677 1.67602 21.8894 2.82997 21.8894C3.98391 21.8894 4.90706 20.9677 4.90706 19.8156V15.5146Z" fill="#A370F7"/>
<path d="M16.2157 9.831C16.2157 8.67892 15.2925 7.75726 14.1386 7.75726C12.9846 7.75726 12.0615 8.67892 12.0615 9.831V19.8156C12.0615 20.9677 12.9846 21.8894 14.1386 21.8894C15.2925 21.8894 16.2157 20.9677 16.2157 19.8156V9.831Z" fill="#A370F7"/>
<path d="M27.6013 2.0737C27.6013 0.921629 26.6781 -3.05176e-05 25.5242 -3.05176e-05C24.3702 -3.05176e-05 23.4471 0.921629 23.4471 2.0737V23.9631C23.4471 25.1152 24.3702 26.0368 25.5242 26.0368C26.6781 26.0368 27.6013 25.1152 27.6013 23.9631V2.0737Z" fill="#A370F7"/>
<path d="M38.9099 9.831C38.9099 8.67892 37.9868 7.75726 36.8328 7.75726C35.6789 7.75726 34.7557 8.67892 34.7557 9.831V19.8156C34.7557 20.9677 35.6789 21.8894 36.8328 21.8894C37.9868 21.8894 38.9099 20.9677 38.9099 19.8156V9.831Z" fill="#A370F7"/>
<path d="M50.2186 15.5146C50.2186 14.3625 49.2954 13.4408 48.1415 13.4408C46.9875 13.4408 46.0644 14.3625 46.0644 15.5146V19.8156C46.0644 20.9677 46.9875 21.8894 48.1415 21.8894C49.2954 21.8894 50.2186 20.9677 50.2186 19.8156V15.5146Z" fill="#A370F7"/>
<path d="M61.6041 9.831C61.6041 8.67892 60.681 7.75726 59.527 7.75726C58.3731 7.75726 57.4499 8.67892 57.4499 9.831V19.8156C57.4499 20.9677 58.3731 21.8894 59.527 21.8894C60.681 21.8894 61.6041 20.9677 61.6041 19.8156V9.831Z" fill="#A370F7"/>
<path d="M72.9128 2.0737C72.9128 0.921629 71.9896 -3.05176e-05 70.8357 -3.05176e-05C69.6817 -3.05176e-05 68.7586 0.921629 68.7586 2.0737V23.9631C68.7586 25.1152 69.6817 26.0368 70.8357 26.0368C71.9896 26.0368 72.9128 25.1152 72.9128 23.9631V2.0737Z" fill="#A370F7"/>
<path d="M84.2984 9.831C84.2984 8.67892 83.3752 7.75726 82.2213 7.75726C81.0673 7.75726 80.1442 8.67892 80.1442 9.831V19.8156C80.1442 20.9677 81.0673 21.8894 82.2213 21.8894C83.3752 21.8894 84.2984 20.9677 84.2984 19.8156V9.831Z" fill="#A370F7"/>
<path d="M95.607 15.5146C95.607 14.3625 94.6838 13.4408 93.5299 13.4408C92.3759 13.4408 91.4528 14.3625 91.4528 15.5146V19.8156C91.4528 20.9677 92.3759 21.8894 93.5299 21.8894C94.6838 21.8894 95.607 20.9677 95.607 19.8156V15.5146Z" fill="#A370F7"/>
</svg>
