<svg width="24" height="26" viewBox="0 0 24 26" fill="none" xmlns="http://www.w3.org/2000/svg">
<g clip-path="url(#clip0_43_981)">
<path fill-rule="evenodd" clip-rule="evenodd" d="M12.0007 24.024C14.7284 24.0256 17.3638 23.0361 19.4164 21.2397C21.469 19.4432 22.799 16.9622 23.1589 14.2584C23.5188 11.5545 22.8841 8.812 21.3728 6.54119C19.8616 4.27039 17.5768 2.62598 14.9437 1.914C15.0079 1.69058 15.0192 1.45531 14.9769 1.22675C14.9345 0.998196 14.8396 0.782607 14.6997 0.596999C14.5598 0.411391 14.3786 0.260844 14.1705 0.157239C13.9625 0.0536335 13.7331 -0.000195296 13.5007 5.32406e-07H10.5007C10.2683 -0.000195296 10.0389 0.0536335 9.83086 0.157239C9.62278 0.260844 9.44162 0.411391 9.30169 0.596999C9.16176 0.782607 9.06687 0.998196 9.02453 1.22675C8.98219 1.45531 8.99354 1.69058 9.0577 1.914C6.42456 2.62598 4.13978 4.27039 2.62856 6.54119C1.11734 8.812 0.482622 11.5545 0.842524 14.2584C1.20243 16.9622 2.53243 19.4432 4.58503 21.2397C6.63763 23.0361 9.273 24.0256 12.0007 24.024ZM21.7507 12.774C21.7507 15.3599 20.7235 17.8398 18.895 19.6683C17.0665 21.4968 14.5866 22.524 12.0007 22.524C9.41484 22.524 6.93489 21.4968 5.10641 19.6683C3.27793 17.8398 2.2507 15.3599 2.2507 12.774C2.2507 10.1881 3.27793 7.70819 5.10641 5.87971C6.93489 4.05123 9.41484 3.024 12.0007 3.024C14.5866 3.024 17.0665 4.05123 18.895 5.87971C20.7235 7.70819 21.7507 10.1881 21.7507 12.774Z" fill="#3D0A91"/>
<path d="M10.4105 11.1602L17.8355 6.91516L13.5905 14.3402L6.16699 18.5852L10.409 11.1602H10.4105Z" fill="#3D0A91"/>
</g>
<defs>
<clipPath id="clip0_43_981">
<rect width="24" height="25.5" fill="white"/>
</clipPath>
</defs>
</svg>
