<svg width="25" height="24" viewBox="0 0 25 24" fill="none" xmlns="http://www.w3.org/2000/svg">
<g clip-path="url(#clip0_43_1018)">
<path fill-rule="evenodd" clip-rule="evenodd" d="M6.66666 9.00016C5.87101 9.00016 5.10794 9.31623 4.54534 9.87884C3.98273 10.4414 3.66666 11.2045 3.66666 12.0002C3.66666 12.7958 3.98273 13.5589 4.54534 14.1215C5.10794 14.6841 5.87101 15.0002 6.66666 15.0002C7.46231 15.0002 8.22537 14.6841 8.78798 14.1215C9.35059 13.5589 9.66666 12.7958 9.66666 12.0002C9.66666 11.2045 9.35059 10.4414 8.78798 9.87884C8.22537 9.31623 7.46231 9.00016 6.66666 9.00016ZM10.6042 9.82066C10.1525 9.00354 9.45795 8.34712 8.61663 7.94235C7.77532 7.53758 6.82894 7.40451 5.90862 7.56158C4.98831 7.71864 4.13963 8.15807 3.48019 8.81897C2.82075 9.47986 2.3832 10.3295 2.22816 11.2502H1.41666C1.21774 11.2502 1.02698 11.3292 0.886326 11.4698C0.745674 11.6105 0.666656 11.8012 0.666656 12.0002C0.666656 12.1991 0.745674 12.3898 0.886326 12.5305C1.02698 12.6711 1.21774 12.7502 1.41666 12.7502H2.22816C2.4143 13.8645 3.01282 14.8681 3.90483 15.5616C4.79684 16.255 5.91705 16.5875 7.04292 16.493C8.16879 16.3986 9.21793 15.884 9.98192 15.0517C10.7459 14.2193 11.1688 13.13 11.1667 12.0002C11.1667 11.6023 11.3247 11.2208 11.606 10.9395C11.8873 10.6582 12.2688 10.5002 12.6667 10.5002C13.0645 10.5002 13.446 10.6582 13.7273 10.9395C14.0086 11.2208 14.1667 11.6023 14.1667 12.0002C14.1645 13.13 14.5874 14.2193 15.3514 15.0517C16.1154 15.884 17.1645 16.3986 18.2904 16.493C19.4163 16.5875 20.5365 16.255 21.4285 15.5616C22.3205 14.8681 22.919 13.8645 23.1052 12.7502H23.9167C24.1156 12.7502 24.3063 12.6711 24.447 12.5305C24.5876 12.3898 24.6667 12.1991 24.6667 12.0002C24.6667 11.8012 24.5876 11.6105 24.447 11.4698C24.3063 11.3292 24.1156 11.2502 23.9167 11.2502H23.1052C22.9501 10.3295 22.5126 9.47986 21.8531 8.81897C21.1937 8.15807 20.345 7.71864 19.4247 7.56158C18.5044 7.40451 17.558 7.53758 16.7167 7.94235C15.8754 8.34712 15.1808 9.00354 14.7292 9.82066C14.1724 9.2926 13.434 8.99883 12.6667 9.00016C11.8687 9.00016 11.1427 9.31216 10.6042 9.82066ZM21.6667 12.0002C21.6667 11.2045 21.3506 10.4414 20.788 9.87884C20.2254 9.31623 19.4623 9.00016 18.6667 9.00016C17.871 9.00016 17.1079 9.31623 16.5453 9.87884C15.9827 10.4414 15.6667 11.2045 15.6667 12.0002C15.6667 12.7958 15.9827 13.5589 16.5453 14.1215C17.1079 14.6841 17.871 15.0002 18.6667 15.0002C19.4623 15.0002 20.2254 14.6841 20.788 14.1215C21.3506 13.5589 21.6667 12.7958 21.6667 12.0002Z" fill="#3D0A91"/>
</g>
<defs>
<clipPath id="clip0_43_1018">
<rect width="24" height="24" fill="white" transform="translate(0.666656)"/>
</clipPath>
</defs>
</svg>
