<svg width="136" height="38" viewBox="0 0 136 38" fill="none" xmlns="http://www.w3.org/2000/svg">
<path d="M128.457 18.129L135.682 37.25C133.564 36.9597 131.405 36.5449 129.246 36.2131L125.177 25.6364L120.984 35.342C118.95 35.0102 116.915 34.8858 114.839 34.6369L122.188 17.9216L115.545 0.75H121.731L125.468 10.3313L129.454 0.75H135.682L128.457 18.129ZM110.687 0.75H105.082V33.8903C106.909 34.0148 108.819 34.0977 110.687 34.3051V0.75ZM100.266 33.517C95.1593 33.1852 90.0525 32.8534 84.8626 32.7705V0.75H90.5507V27.3784C93.8307 27.4614 97.1107 27.7102 100.266 27.8761V33.517ZM78.7594 13.7324V19.4148H70.9538V32.3972H65.3073V0.75H81.292V6.43239H70.9538V13.6909H78.7594V13.7324ZM55.7164 6.43239V32.6875C53.8066 32.6875 51.8552 32.6875 49.9869 32.7705V6.43239H44.0912V0.75H61.6536V6.43239H55.7164ZM37.9464 19.7051C35.4553 19.7051 32.4659 19.7051 30.3485 19.8295V28.2909C33.7115 28.042 37.033 27.7932 40.4375 27.6688V33.1437L24.6604 34.3881V0.75H40.4375V6.43239H30.3485V14.1057C32.549 14.1057 35.9535 13.9812 37.9464 13.9812V19.7051ZM6.30909 16.5114V36.4205C4.27467 36.6693 2.44784 36.9597 0.49646 37.25V0.75H5.93542L13.3673 21.4886V0.75H19.0969V34.8858C17.0625 35.2176 15.028 35.342 12.8691 35.6324L6.30909 16.5114Z" fill="#A370F7"/>
</svg>
