<svg width="145" height="36" viewBox="0 0 145 36" fill="none" xmlns="http://www.w3.org/2000/svg">
<path d="M27.5949 21.266L20.383 9.62209H15.1961V26.3425H20.383V14.7341L27.5949 26.378H32.7463V9.62209H27.5239L27.5949 21.266ZM68.5216 15.2666V13.5981H65.8216V11.3261H60.7768V13.5981H58.0413V15.2666H60.7768V26.378H65.8216V15.2666H68.5216ZM35.5884 26.307H40.5977V15.2311H35.5884V26.307ZM35.5884 13.0656H40.6332V9.62209H35.5884V13.0656ZM123.517 14.4501C119.467 14.4501 116.163 17.2546 116.163 20.6625C116.163 24.0705 119.467 26.875 123.517 26.875C127.567 26.875 130.871 24.0705 130.871 20.6625C130.871 17.2546 127.567 14.4501 123.517 14.4501ZM125.542 23.041C125.542 24.816 124.512 25.526 123.517 25.526C122.522 25.526 121.456 24.816 121.456 23.041V18.3551C121.456 16.5801 122.487 15.8701 123.517 15.8701C124.512 15.8701 125.542 16.5801 125.542 18.3551V23.041ZM109.59 15.7636C108.773 15.3021 107.921 14.8761 106.748 14.7696C103.16 14.4501 100.354 17.6451 100.354 20.5915C100.354 24.461 103.338 25.881 103.764 26.094C105.469 26.875 107.636 26.9105 109.519 25.7035V26.3425H114.458V9.65759H109.519C109.59 9.62209 109.59 13.2076 109.59 15.7636ZM109.661 20.7335V22.7215C109.661 24.4255 108.489 24.887 107.672 24.887C106.855 24.887 105.683 24.4255 105.683 22.7215V18.7456C105.683 17.0416 106.855 16.5801 107.672 16.5801C108.454 16.5801 109.661 17.0416 109.661 18.7456V20.7335ZM52.357 14.7341C50.6873 14.7696 49.3372 15.5151 48.3425 16.4026V15.2311H43.3332V26.3425H48.3425V19.0296C48.3425 18.0711 49.3728 17.0061 50.7228 17.0061C52.0728 17.0061 53.032 18.1066 53.032 19.0296V26.3425H58.0413V20.3076C58.0413 15.9056 54.2399 14.6276 52.357 14.7341ZM93.1061 14.7341C91.614 14.7696 90.1929 15.3731 89.0916 16.4026V15.2311H84.0823V26.3425H89.0916V19.0296C89.0916 18.0711 90.1218 17.0061 91.4718 17.0061C92.8219 17.0061 93.7811 18.1066 93.7811 19.0296V26.3425H98.7903V20.3076C98.7903 15.9056 94.989 14.6276 93.1061 14.7341ZM82.6257 20.8045C82.6257 17.3611 79.2862 14.4856 75.2362 14.4856C71.1506 14.4856 67.8466 17.2901 67.8466 20.698C67.8466 24.1415 71.1506 26.9105 75.2362 26.9105C78.6112 26.9105 81.4889 24.958 82.3415 22.3665H77.3322V23.041C77.3322 25.0645 75.9822 25.526 75.2717 25.526C74.4901 25.526 73.1401 25.0645 73.1401 23.041V20.7335L82.6257 20.8045ZM73.5309 16.8996C73.9217 16.2961 74.5612 15.9056 75.2717 15.9056C75.9467 15.9056 76.6217 16.2251 77.0125 16.8996C77.3322 17.4321 77.3322 18.1066 77.3322 19.0651H73.1401C73.1756 18.1066 73.2112 17.4676 73.5309 16.8996ZM132.825 11.7166C132.825 11.1841 132.434 10.9001 131.617 10.9001H130.48V13.7401H131.155V12.5686H131.51L132.043 13.7401H132.825L132.185 12.4621C132.612 12.3556 132.825 12.0716 132.825 11.7166ZM131.546 12.1071H131.191V11.2906H131.51C131.901 11.2906 132.15 11.4326 132.15 11.6811C132.114 12.0361 131.937 12.1071 131.546 12.1071ZM131.581 9.76408C130.196 9.76408 129.024 10.9356 129.024 12.3201C129.024 13.7046 130.196 14.8761 131.581 14.8761C132.967 14.8761 134.139 13.7046 134.139 12.3201C134.139 10.9356 133.002 9.76408 131.581 9.76408ZM131.581 14.4146C130.445 14.4146 129.521 13.4916 129.521 12.3556C129.521 11.2196 130.48 10.2966 131.581 10.2966C132.718 10.2966 133.642 11.2551 133.642 12.3556C133.642 13.4561 132.718 14.4146 131.581 14.4146ZM125.933 0.250116H19.708C8.44608 0.214616 0.914429 8.30859 0.914429 18.0356C0.914429 27.727 8.44608 35.75 19.7436 35.75H126.004C137.301 35.75 144.833 27.727 144.833 18.0356C144.762 8.34409 137.195 0.250116 125.933 0.250116ZM125.897 31.419H19.7436C10.7908 31.4545 5.31973 25.4195 5.31973 18.0356C5.31973 10.6516 10.8264 4.6876 19.7436 4.6521H125.897C134.814 4.6521 140.321 10.6516 140.321 18.0356C140.321 25.4195 134.85 31.419 125.897 31.419Z" fill="#A370F7"/>
</svg>
