<svg width="74" height="40" viewBox="0 0 74 40" fill="none" xmlns="http://www.w3.org/2000/svg">
<path d="M0.725103 16.4659C0.627312 18.2598 0.725103 20.082 0.725103 21.8586C0.725103 25.4681 0.725103 29.0774 0.725103 32.6868C0.725103 34.8045 0.725103 36.9558 0.725103 39.0734H10.3935C10.3935 39.0734 10.4002 30.5934 10.3935 23.3025C10.389 18.395 10.3574 14.0212 10.3935 13.1237C10.5648 8.86906 11.7327 6.08933 13.9126 3.81581C13.7452 3.8092 13.5773 3.80491 13.4084 3.80491C8.69847 3.80491 4.28142 6.49741 2.12518 10.6773C1.18293 12.5037 0.834018 14.4673 0.725103 16.4659Z" fill="#A370F7"/>
<path d="M22.8959 -0.000156403C19.2797 -0.000156403 16.2042 1.41125 13.8869 3.82812C21.091 3.82812 25.7556 8.72496 26.0159 16.5233C26.0757 18.3125 26.0944 27.8867 26.0944 27.8867V39.0734H35.7624C35.7624 39.0734 35.7624 31.3248 35.7624 23.9503C35.7624 19.3791 35.7988 15.4213 35.4797 12.6964C34.5882 5.08169 29.926 -0.000156403 22.8959 -0.000156403Z" fill="#A370F7"/>
<path d="M73.8709 23.5338C73.9687 21.7401 73.8709 19.9179 73.8709 18.1413C73.8709 14.5318 73.8709 10.9225 73.8709 7.313C73.8709 5.19536 73.8709 3.04411 73.8709 0.926289H64.2025C64.2025 0.926289 64.1959 9.4067 64.2025 16.6973C64.2068 21.6049 64.2387 25.9787 64.2025 26.8764C64.0311 31.1306 62.8632 33.9106 60.6835 36.1841C60.8508 36.1907 61.0188 36.1949 61.1874 36.1949C65.8976 36.1949 70.3145 33.5025 72.4709 29.3226C73.413 27.4961 73.7621 25.5325 73.8709 23.5338Z" fill="#A370F7"/>
<path d="M51.7002 40.0001C55.3165 40.0001 58.3919 38.5885 60.7091 36.1717C53.5051 36.1717 48.8406 31.2748 48.5802 23.4765C48.5204 21.6872 48.4952 17.2473 48.4952 12.1038C48.4952 6.48119 48.4952 0.91708 48.4952 0.91708L38.8337 0.926193C38.8337 0.926193 38.8337 8.67498 38.8337 16.0495C38.8337 20.6208 38.7974 24.5783 39.1163 27.3032C40.0077 34.9181 44.6701 40.0001 51.7002 40.0001Z" fill="#A370F7"/>
</svg>
