<svg width="196" height="30" viewBox="0 0 196 30" fill="none" xmlns="http://www.w3.org/2000/svg">
<mask id="mask0_34_13" style="mask-type:alpha" maskUnits="userSpaceOnUse" x="0" y="0" width="31" height="30">
<path fill-rule="evenodd" clip-rule="evenodd" d="M15.0192 30C23.314 30 30.0383 23.2843 30.0383 15C30.0383 6.71573 23.314 0 15.0192 0C6.72431 0 0 6.71573 0 15C0 23.2843 6.72431 30 15.0192 30ZM22.5287 2.01L8.31446 14.5981L13.5172 17.5981L7.50958 27.99L21.7239 15.4019L16.5211 12.4019L22.5287 2.01Z" fill="#C4C4C4"/>
</mask>
<g mask="url(#mask0_34_13)">
<path d="M22.5287 2.00962C29.7123 6.15176 32.1736 15.3256 28.0261 22.5C23.8787 29.6744 14.6931 32.1325 7.50958 27.9904L22.5287 2.00962Z" fill="url(#paint0_linear_34_13)"/>
<path d="M7.50959 27.9904C0.326036 23.8482 -2.13523 14.6744 2.0122 7.49999C6.15962 0.325604 15.3452 -2.13252 22.5287 2.00961L7.50959 27.9904Z" fill="url(#paint1_linear_34_13)"/>
</g>
<path d="M41.228 23.25L37.5479 5.92499H41.228L43.0246 15.1691C43.0742 15.3919 43.1072 15.5899 43.1237 15.7631C43.1485 15.9364 43.1774 16.1467 43.2105 16.3942C43.2353 16.1715 43.2642 15.9611 43.2972 15.7631C43.3385 15.5651 43.384 15.363 43.4335 15.1567L45.701 5.92499H48.7987L51.0786 15.1444C51.1365 15.3341 51.1819 15.5362 51.2149 15.7507C51.248 15.957 51.2769 16.1715 51.3017 16.3942C51.3347 16.188 51.3678 15.99 51.4008 15.8002C51.4338 15.6022 51.4669 15.4166 51.4999 15.2434L53.3462 5.92499H57.0138L53.2718 23.25H49.9511L47.3986 13.3376C47.3573 13.1891 47.3201 13.0406 47.2871 12.8921C47.2623 12.7354 47.2375 12.5415 47.2127 12.3105C47.1797 12.558 47.1466 12.7519 47.1136 12.8921C47.0888 13.0324 47.0599 13.1767 47.0268 13.3252L44.5487 23.25H41.228Z" fill="#290661"/>
<path d="M62.5111 23.547C61.2803 23.547 60.2188 23.2789 59.3267 22.7426C58.4345 22.2064 57.7489 21.4432 57.2698 20.4532C56.7907 19.4632 56.5511 18.2835 56.5511 16.914C56.5511 15.561 56.7948 14.3895 57.2822 13.3995C57.7695 12.4095 58.4593 11.6464 59.3514 11.1101C60.2436 10.5739 61.2968 10.3057 62.5111 10.3057C63.5602 10.3057 64.5101 10.5244 65.361 10.9616C66.2118 11.3906 66.885 12.0506 67.3807 12.9416C67.8846 13.8244 68.1365 14.9422 68.1365 16.2952C68.1365 16.5262 68.1324 16.8067 68.1241 17.1367C68.1159 17.4585 68.0911 17.7802 68.0498 18.102H59.8842C59.9008 18.6217 60.0164 19.0714 60.2312 19.4509C60.4542 19.8304 60.7599 20.1274 61.1481 20.3419C61.5363 20.5481 61.9948 20.6512 62.5235 20.6512C63.1513 20.6512 63.6841 20.5522 64.1219 20.3542C64.5597 20.148 64.981 19.8139 65.3858 19.3519L67.3435 21.3442C66.7735 22.0125 66.0879 22.5487 65.2866 22.953C64.4936 23.349 63.5684 23.547 62.5111 23.547ZM59.9214 15.5032H64.8653C64.8158 15.0165 64.6919 14.5999 64.4936 14.2534C64.2954 13.9069 64.0228 13.647 63.6758 13.4737C63.3371 13.2922 62.9241 13.2015 62.4367 13.2015C61.7676 13.2015 61.2018 13.3995 60.7392 13.7955C60.2849 14.1915 60.0123 14.7607 59.9214 15.5032Z" fill="#290661"/>
<path d="M75.7811 23.547C75.2193 23.547 74.7444 23.448 74.3561 23.25C73.9679 23.0437 73.6251 22.7137 73.3277 22.26V23.25H69.9202V6.91499L73.3277 5.38049V11.5556C73.6251 11.1514 73.9968 10.842 74.4429 10.6275C74.8889 10.413 75.3887 10.3057 75.9421 10.3057C76.9747 10.3057 77.8834 10.5862 78.6681 11.1472C79.4611 11.7082 80.0807 12.4837 80.5267 13.4737C80.9728 14.4637 81.1958 15.6105 81.1958 16.914C81.1958 19.0012 80.7167 20.6306 79.7585 21.8021C78.8003 22.9654 77.4745 23.547 75.7811 23.547ZM75.3846 20.28C76.1528 20.28 76.7434 19.9871 77.1564 19.4014C77.5777 18.8156 77.7884 17.9865 77.7884 16.914C77.7884 15.8415 77.5777 15.0165 77.1564 14.439C76.7434 13.8615 76.1528 13.5727 75.3846 13.5727C74.955 13.5727 74.5544 13.6552 74.1827 13.8202C73.8192 13.9852 73.5342 14.2121 73.3277 14.5009V19.3642C73.559 19.6695 73.8357 19.9005 74.1579 20.0572C74.48 20.2057 74.8889 20.28 75.3846 20.28Z" fill="#290661"/>
<path d="M92.4229 23.25V9.34049H87.4666V5.92499H100.96V9.34049H95.9914V23.25H92.4229Z" fill="#290661"/>
<path d="M105.593 23.547C104.363 23.547 103.301 23.2789 102.409 22.7426C101.517 22.2064 100.831 21.4432 100.352 20.4532C99.8729 19.4632 99.6334 18.2835 99.6334 16.914C99.6334 15.561 99.877 14.3895 100.364 13.3995C100.852 12.4095 101.542 11.6464 102.434 11.1101C103.326 10.5739 104.379 10.3057 105.593 10.3057C106.642 10.3057 107.592 10.5244 108.443 10.9616C109.294 11.3906 109.967 12.0506 110.463 12.9416C110.967 13.8244 111.219 14.9422 111.219 16.2952C111.219 16.5262 111.215 16.8067 111.206 17.1367C111.198 17.4585 111.173 17.7802 111.132 18.102H102.966C102.983 18.6217 103.099 19.0714 103.313 19.4509C103.536 19.8304 103.842 20.1274 104.23 20.3419C104.619 20.5481 105.077 20.6512 105.606 20.6512C106.234 20.6512 106.766 20.5522 107.204 20.3542C107.642 20.148 108.063 19.8139 108.468 19.3519L110.426 21.3442C109.856 22.0125 109.17 22.5487 108.369 22.953C107.576 23.349 106.651 23.547 105.593 23.547ZM103.004 15.5032H107.948C107.898 15.0165 107.774 14.5999 107.576 14.2534C107.378 13.9069 107.105 13.647 106.758 13.4737C106.419 13.2922 106.006 13.2015 105.519 13.2015C104.85 13.2015 104.284 13.3995 103.821 13.7955C103.367 14.1915 103.095 14.7607 103.004 15.5032Z" fill="#290661"/>
<path d="M113.027 23.25V10.6027H116.434V11.766C116.855 11.2545 117.31 10.8832 117.797 10.6522C118.284 10.4212 118.838 10.3057 119.457 10.3057C120.209 10.3057 120.845 10.4542 121.366 10.7512C121.886 11.0482 122.291 11.4937 122.58 12.0877C123.001 11.5102 123.546 11.0689 124.216 10.7636C124.893 10.4584 125.653 10.3057 126.495 10.3057C128.115 10.3057 129.321 10.7224 130.114 11.5556C130.907 12.3889 131.303 13.6635 131.303 15.3795V23.25H127.896V16.5922C127.896 15.5362 127.739 14.769 127.425 14.2905C127.111 13.812 126.607 13.5727 125.913 13.5727C125.434 13.5727 125.042 13.6759 124.736 13.8821C124.439 14.0801 124.22 14.3936 124.079 14.8226C123.939 15.2516 123.869 15.8126 123.869 16.5056V23.25H120.461V16.5922C120.461 15.528 120.304 14.7607 119.99 14.2905C119.685 13.812 119.185 13.5727 118.491 13.5727C117.764 13.5727 117.24 13.7996 116.917 14.2534C116.595 14.7071 116.434 15.4496 116.434 16.4809V23.25H113.027Z" fill="#290661"/>
<path d="M133.81 28.2742V10.6027H137.218V11.4937C137.846 10.7017 138.721 10.3057 139.845 10.3057C140.935 10.3057 141.873 10.5739 142.657 11.1101C143.442 11.6381 144.045 12.3971 144.466 13.3871C144.888 14.3771 145.098 15.561 145.098 16.9387C145.098 18.2587 144.875 19.4137 144.429 20.4037C143.991 21.3937 143.376 22.1651 142.583 22.7179C141.79 23.2706 140.865 23.547 139.807 23.547C139.254 23.547 138.758 23.448 138.321 23.25C137.891 23.052 137.523 22.7632 137.218 22.3837V26.7397L133.81 28.2742ZM139.275 20.28C140.043 20.28 140.633 19.9871 141.047 19.4014C141.468 18.8156 141.678 17.9947 141.678 16.9387C141.678 15.858 141.472 15.0289 141.059 14.4514C140.646 13.8656 140.051 13.5727 139.275 13.5727C138.829 13.5727 138.44 13.647 138.11 13.7955C137.779 13.9357 137.482 14.1585 137.218 14.4637V19.3395C137.366 19.62 137.631 19.8469 138.011 20.0201C138.391 20.1934 138.812 20.28 139.275 20.28Z" fill="#290661"/>
<path d="M147.119 23.25V6.91499L150.526 5.38049V23.25H147.119Z" fill="#290661"/>
<path d="M156.976 23.547C155.589 23.547 154.49 23.1757 153.68 22.4332C152.871 21.6907 152.466 20.6884 152.466 19.4261C152.466 18.6011 152.677 17.8792 153.098 17.2605C153.528 16.6417 154.122 16.1632 154.882 15.825C155.642 15.4785 156.526 15.3052 157.534 15.3052C158.071 15.3052 158.591 15.3506 159.095 15.4414C159.607 15.5321 160.041 15.66 160.396 15.825V15.0701C160.396 14.4431 160.202 13.9687 159.814 13.647C159.434 13.317 158.881 13.152 158.154 13.152C157.534 13.152 156.894 13.2634 156.233 13.4861C155.58 13.7089 154.907 14.0471 154.213 14.5009L153.172 11.865C153.924 11.3617 154.758 10.9781 155.675 10.7141C156.601 10.4419 157.538 10.3057 158.488 10.3057C160.248 10.3057 161.565 10.7141 162.441 11.5309C163.316 12.3476 163.754 13.5686 163.754 15.1939V23.25H160.396V22.2847C159.992 22.6972 159.496 23.0107 158.909 23.2252C158.331 23.4397 157.687 23.547 156.976 23.547ZM157.819 20.7007C158.306 20.7007 158.769 20.6141 159.207 20.4409C159.653 20.2676 160.049 20.016 160.396 19.686V18.4237C160.066 18.2752 159.702 18.1639 159.306 18.0896C158.909 18.0154 158.505 17.9782 158.092 17.9782C157.373 17.9782 156.807 18.1061 156.394 18.3619C155.989 18.6094 155.787 18.96 155.787 19.4137C155.787 19.818 155.965 20.1356 156.32 20.3666C156.675 20.5894 157.175 20.7007 157.819 20.7007Z" fill="#290661"/>
<path d="M169.41 23.547C168.353 23.547 167.564 23.2665 167.044 22.7055C166.531 22.1362 166.275 21.2865 166.275 20.1562V13.5975H164.491V10.6027H166.275V6.98924L169.658 5.38049V10.6027H172.446V13.5975H169.658V19.6489C169.658 19.9706 169.728 20.214 169.869 20.379C170.017 20.5357 170.245 20.6141 170.55 20.6141C171.17 20.6141 171.851 20.4367 172.595 20.082L172.211 22.9777C171.822 23.1592 171.397 23.2995 170.934 23.3985C170.472 23.4975 169.964 23.547 169.41 23.547Z" fill="#290661"/>
<path d="M179.522 23.547C178.291 23.547 177.23 23.2789 176.337 22.7426C175.445 22.2064 174.76 21.4432 174.281 20.4532C173.801 19.4632 173.562 18.2835 173.562 16.914C173.562 15.561 173.806 14.3895 174.293 13.3995C174.78 12.4095 175.47 11.6464 176.362 11.1101C177.254 10.5739 178.308 10.3057 179.522 10.3057C180.571 10.3057 181.521 10.5244 182.372 10.9616C183.223 11.3906 183.896 12.0506 184.391 12.9416C184.895 13.8244 185.147 14.9422 185.147 16.2952C185.147 16.5262 185.143 16.8067 185.135 17.1367C185.127 17.4585 185.102 17.7802 185.061 18.102H176.895C176.912 18.6217 177.027 19.0714 177.242 19.4509C177.465 19.8304 177.771 20.1274 178.159 20.3419C178.547 20.5481 179.006 20.6512 179.534 20.6512C180.162 20.6512 180.695 20.5522 181.133 20.3542C181.571 20.148 181.992 19.8139 182.397 19.3519L184.354 21.3442C183.784 22.0125 183.099 22.5487 182.297 22.953C181.504 23.349 180.579 23.547 179.522 23.547ZM176.932 15.5032H181.876C181.827 15.0165 181.703 14.5999 181.504 14.2534C181.306 13.9069 181.034 13.647 180.687 13.4737C180.348 13.2922 179.935 13.2015 179.448 13.2015C178.778 13.2015 178.213 13.3995 177.75 13.7955C177.296 14.1915 177.023 14.7607 176.932 15.5032Z" fill="#290661"/>
<path d="M190.976 23.547C189.96 23.547 188.985 23.3325 188.051 22.9035C187.118 22.4662 186.387 21.8846 185.858 21.1586L188.039 19.3147C188.46 19.7437 188.948 20.0902 189.501 20.3542C190.055 20.6182 190.583 20.7502 191.087 20.7502C191.665 20.7502 192.111 20.6595 192.425 20.478C192.739 20.2882 192.896 20.0201 192.896 19.6736C192.896 19.4591 192.822 19.2694 192.673 19.1044C192.525 18.9311 192.252 18.7496 191.855 18.5599C191.459 18.3701 190.889 18.1391 190.145 17.8669C188.708 17.3471 187.696 16.7861 187.11 16.1839C186.523 15.5734 186.23 14.802 186.23 13.8697C186.23 12.8055 186.66 11.9475 187.519 11.2957C188.378 10.6357 189.501 10.3057 190.889 10.3057C191.822 10.3057 192.69 10.4831 193.491 10.8379C194.292 11.1926 194.982 11.7082 195.56 12.3847L193.367 14.2039C192.624 13.4696 191.773 13.1025 190.815 13.1025C190.36 13.1025 189.993 13.1891 189.712 13.3624C189.431 13.5274 189.29 13.7419 189.29 14.0059C189.29 14.2699 189.46 14.5132 189.799 14.736C190.137 14.9505 190.777 15.2021 191.719 15.4909C192.71 15.7879 193.516 16.1302 194.135 16.518C194.763 16.9057 195.222 17.3595 195.511 17.8792C195.808 18.3907 195.957 18.9847 195.957 19.6612C195.957 20.874 195.511 21.8269 194.619 22.5199C193.735 23.2046 192.52 23.547 190.976 23.547Z" fill="#290661"/>
<defs>
<linearGradient id="paint0_linear_34_13" x1="7.44989" y1="27.9904" x2="22.5903" y2="1.87361" gradientUnits="userSpaceOnUse">
<stop offset="0.398623" stop-color="#F07319"/>
<stop offset="0.597531" stop-color="#F07319"/>
<stop offset="1" stop-color="#FFBF1B"/>
</linearGradient>
<linearGradient id="paint1_linear_34_13" x1="22.5884" y1="2.00961" x2="7.44804" y2="28.1264" gradientUnits="userSpaceOnUse">
<stop offset="0.398623" stop-color="#F07319"/>
<stop offset="0.597531" stop-color="#F07319"/>
<stop offset="1" stop-color="#FFBF1B"/>
</linearGradient>
</defs>
</svg>
