<svg width="522" height="80" viewBox="0 0 522 80" fill="none" xmlns="http://www.w3.org/2000/svg"><g clip-path="url(#clip0_1_1483)"><mask id="mask0_1_1483" style="mask-type:alpha" maskUnits="userSpaceOnUse" x="0" y="0" width="80" height="80"><path fill-rule="evenodd" clip-rule="evenodd" d="M40 80a40 40 0 1 0 0-80 40 40 0 0 0 0 80ZM60 5.36 22.14 38.93l13.86 8-16 27.71 37.86-33.57-13.86-8L60 5.36Z" fill="#C4C4C4"/></mask><g mask="url(#mask0_1_1483)"><path d="M60 5.36a40 40 0 0 1-40 69.28L60 5.36Z" fill="url(#paint0_linear_1_1483)"/><path d="M20 74.64A40 40 0 1 1 60 5.36L20 74.64Z" fill="url(#paint1_linear_1_1483)"/></g></g><path d="M109.8 62 100 15.8h9.8l4.79 24.65c.13.6.22 1.12.26 1.58l.23 1.69c.07-.6.14-1.16.23-1.69l.36-1.61 6.04-24.62h8.25l6.08 24.58c.15.51.27 1.05.36 1.62.09.55.16 1.12.23 1.72a118.79 118.79 0 0 1 .53-3.07l4.91-24.85h9.77L141.88 62h-8.85l-6.8-26.43-.3-1.2c-.06-.4-.12-.93-.19-1.54a16.9 16.9 0 0 1-.26 1.55l-.23 1.15-6.6 26.47h-8.85ZM166.48 62.8c-3.27 0-6.1-.72-8.48-2.15a14.09 14.09 0 0 1-5.47-6.1 21.5 21.5 0 0 1-1.92-9.45c0-3.6.65-6.73 1.95-9.37a14.3 14.3 0 0 1 5.5-6.1 16 16 0 0 1 8.42-2.15c2.8 0 5.33.59 7.6 1.75a12.57 12.57 0 0 1 5.37 5.28c1.34 2.36 2.02 5.34 2.02 8.94 0 .62-.01 1.37-.04 2.25-.02.86-.09 1.71-.2 2.57H159.5a7.7 7.7 0 0 0 .92 3.6c.6 1.01 1.41 1.8 2.44 2.38a7.7 7.7 0 0 0 3.67.82c1.67 0 3.09-.26 4.25-.8a10.53 10.53 0 0 0 3.37-2.67l5.21 5.32a17.45 17.45 0 0 1-5.47 4.29 16.33 16.33 0 0 1-7.4 1.58Zm-6.9-21.46h13.17a8.36 8.36 0 0 0-.99-3.33 5.09 5.09 0 0 0-2.17-2.08c-.9-.48-2-.73-3.3-.73a6.7 6.7 0 0 0-4.53 1.59 6.9 6.9 0 0 0-2.17 4.55ZM201.82 62.8c-1.5 0-2.76-.27-3.79-.8a7.6 7.6 0 0 1-2.74-2.64V62h-9.07V18.44l9.07-4.1v16.48a7.88 7.88 0 0 1 2.97-2.48 9.09 9.09 0 0 1 4-.86c2.74 0 5.16.75 7.25 2.25a14.88 14.88 0 0 1 4.95 6.2 22.16 22.16 0 0 1 1.79 9.17c0 5.57-1.28 9.91-3.83 13.04-2.55 3.1-6.08 4.65-10.6 4.65Zm-1.05-8.72c2.04 0 3.62-.78 4.72-2.34 1.12-1.57 1.68-3.78 1.68-6.64s-.56-5.06-1.68-6.6a5.45 5.45 0 0 0-4.72-2.3 7.8 7.8 0 0 0-3.2.65 5.54 5.54 0 0 0-2.28 1.82v12.97a6.11 6.11 0 0 0 2.21 1.85c.86.4 1.95.59 3.27.59ZM246.15 62V24.9h-13.2v-9.1h35.93v9.1h-13.23V62h-9.5ZM281.22 62.8c-3.28 0-6.1-.72-8.48-2.15a14.09 14.09 0 0 1-5.48-6.1 21.5 21.5 0 0 1-1.91-9.45c0-3.6.65-6.73 1.95-9.37a14.3 14.3 0 0 1 5.5-6.1 16 16 0 0 1 8.42-2.15c2.8 0 5.33.59 7.6 1.75a12.57 12.57 0 0 1 5.37 5.28c1.34 2.36 2.01 5.34 2.01 8.94 0 .62 0 1.37-.03 2.25-.02.86-.09 1.71-.2 2.57h-21.74a7.7 7.7 0 0 0 .92 3.6c.6 1.01 1.4 1.8 2.44 2.38a7.7 7.7 0 0 0 3.67.82c1.67 0 3.09-.26 4.25-.8a10.53 10.53 0 0 0 3.37-2.67l5.21 5.32a17.45 17.45 0 0 1-5.47 4.29 16.33 16.33 0 0 1-7.4 1.58Zm-6.9-21.46h13.17a8.36 8.36 0 0 0-.99-3.33 5.09 5.09 0 0 0-2.18-2.08c-.9-.48-2-.73-3.3-.73a6.7 6.7 0 0 0-4.52 1.59 6.9 6.9 0 0 0-2.17 4.55ZM301.02 62V28.27h9.08v3.1a10.72 10.72 0 0 1 3.63-2.96 10.2 10.2 0 0 1 4.42-.93c2 0 3.7.4 5.08 1.19a8 8 0 0 1 3.23 3.56 10.88 10.88 0 0 1 4.36-3.53 14.6 14.6 0 0 1 6.07-1.22c4.31 0 7.53 1.11 9.64 3.34 2.1 2.22 3.17 5.62 3.17 10.2V62h-9.08V44.25c0-2.82-.42-4.87-1.25-6.14-.84-1.28-2.18-1.92-4.03-1.92-1.28 0-2.32.28-3.13.83a4.6 4.6 0 0 0-1.75 2.5 14.79 14.79 0 0 0-.56 4.5V62h-9.08V44.25c0-2.84-.42-4.89-1.25-6.14-.82-1.28-2.15-1.92-4-1.92-1.93 0-3.33.6-4.19 1.82-.86 1.2-1.28 3.19-1.28 5.94V62h-9.08ZM356.37 75.4V28.27h9.08v2.38c1.67-2.11 4-3.17 7-3.17 2.9 0 5.4.72 7.48 2.15 2.1 1.4 3.7 3.43 4.82 6.07a24.14 24.14 0 0 1 1.69 9.47c0 3.52-.6 6.6-1.79 9.24a14.41 14.41 0 0 1-4.91 6.17 12.6 12.6 0 0 1-7.4 2.21 9.5 9.5 0 0 1-3.96-.79 8.07 8.07 0 0 1-2.93-2.31v11.62l-9.08 4.09Zm14.56-21.32c2.04 0 3.61-.78 4.71-2.34 1.13-1.57 1.69-3.75 1.69-6.57 0-2.88-.55-5.1-1.65-6.63a5.46 5.46 0 0 0-4.75-2.35 7.5 7.5 0 0 0-3.1.6 6.5 6.5 0 0 0-2.38 1.78v13c.4.75 1.1 1.35 2.1 1.82 1.02.46 2.14.69 3.38.69ZM391.82 62V18.44l9.07-4.1V62h-9.07ZM418.07 62.8c-3.7 0-6.62-1-8.78-2.98-2.15-1.98-3.23-4.65-3.23-8.02 0-2.2.56-4.12 1.68-5.77a11.14 11.14 0 0 1 4.75-3.83 16.85 16.85 0 0 1 7.06-1.39c1.44 0 2.82.13 4.16.37 1.37.24 2.52.58 3.47 1.02v-2.01c0-1.67-.52-2.94-1.55-3.8-1.01-.88-2.49-1.32-4.43-1.32-1.64 0-3.35.3-5.11.9-1.74.59-3.53 1.49-5.38 2.7l-2.77-7.03a26.37 26.37 0 0 1 14.16-4.16c4.68 0 8.2 1.1 10.52 3.27 2.33 2.18 3.5 5.43 3.5 9.77V62h-8.94v-2.57a10.52 10.52 0 0 1-3.96 2.5 14.7 14.7 0 0 1-5.15.86Zm2.24-7.6a9.94 9.94 0 0 0 6.87-2.7v-3.37c-.88-.4-1.85-.7-2.9-.9-1.06-.19-2.14-.29-3.24-.29-1.91 0-3.42.34-4.52 1.03a3.12 3.12 0 0 0-1.62 2.8c0 1.08.48 1.92 1.42 2.54.95.6 2.28.9 4 .9ZM451.18 62.8c-2.81 0-4.91-.76-6.3-2.25-1.36-1.52-2.05-3.79-2.05-6.8V36.26h-4.75v-7.99h4.75v-9.63l9.01-4.3v13.93h7.43v7.99h-7.43V52.4c0 .86.2 1.5.56 1.94.4.42 1 .63 1.82.63 1.65 0 3.46-.47 5.44-1.42l-1.02 7.72a15.8 15.8 0 0 1-3.4 1.13c-1.23.26-2.58.4-4.06.4ZM478.12 62.8c-3.28 0-6.11-.72-8.49-2.15a14.09 14.09 0 0 1-5.47-6.1 21.5 21.5 0 0 1-1.92-9.45c0-3.6.65-6.73 1.95-9.37a14.3 14.3 0 0 1 5.51-6.1 16 16 0 0 1 8.42-2.15c2.79 0 5.32.59 7.58 1.75a12.57 12.57 0 0 1 5.38 5.28c1.35 2.36 2.02 5.34 2.02 8.94 0 .62-.01 1.37-.04 2.25-.02.86-.08 1.71-.2 2.57h-21.74a7.7 7.7 0 0 0 .92 3.6c.6 1.01 1.41 1.8 2.44 2.38a7.7 7.7 0 0 0 3.67.82c1.67 0 3.09-.26 4.25-.8a10.53 10.53 0 0 0 3.37-2.67l5.22 5.32a17.45 17.45 0 0 1-5.48 4.29 16.33 16.33 0 0 1-7.4 1.58Zm-6.9-21.46h13.16a8.36 8.36 0 0 0-.99-3.33 5.09 5.09 0 0 0-2.17-2.08c-.9-.48-2-.73-3.3-.73a6.7 6.7 0 0 0-4.52 1.59 6.9 6.9 0 0 0-2.18 4.55ZM508.62 62.8c-2.7 0-5.3-.58-7.79-1.72a14.81 14.81 0 0 1-5.84-4.66l5.8-4.91a13.64 13.64 0 0 0 3.9 2.77 9.8 9.8 0 0 0 4.23 1.05c1.54 0 2.72-.24 3.56-.72a2.38 2.38 0 0 0 .66-3.66 6.81 6.81 0 0 0-2.18-1.46 54.95 54.95 0 0 0-4.55-1.84c-3.83-1.4-6.53-2.89-8.09-4.5a8.55 8.55 0 0 1-2.34-6.16 8.21 8.21 0 0 1 3.43-6.87c2.29-1.76 5.28-2.64 8.98-2.64 2.48 0 4.8.47 6.93 1.42s3.97 2.32 5.5 4.13L515 37.88a9.4 9.4 0 0 0-6.8-2.94c-1.21 0-2.19.23-2.94.7-.75.43-1.12 1-1.12 1.7 0 .71.45 1.36 1.35 1.96.9.57 2.61 1.24 5.12 2 2.64.8 4.78 1.71 6.43 2.75a10.15 10.15 0 0 1 3.67 3.63 9.3 9.3 0 0 1 1.18 4.75c0 3.23-1.18 5.77-3.56 7.62-2.35 1.83-5.59 2.74-9.7 2.74Z" fill="#383F48"/><defs><linearGradient id="paint0_linear_1_1483" x1="19.84" y1="74.64" x2="60.24" y2="5.04" gradientUnits="userSpaceOnUse"><stop offset=".4" stop-color="#F07319"/><stop offset=".6" stop-color="#F07319"/><stop offset="1" stop-color="#FFBF1B"/></linearGradient><linearGradient id="paint1_linear_1_1483" x1="60.16" y1="5.36" x2="19.76" y2="74.96" gradientUnits="userSpaceOnUse"><stop offset=".4" stop-color="#F07319"/><stop offset=".6" stop-color="#F07319"/><stop offset="1" stop-color="#FFBF1B"/></linearGradient><clipPath id="clip0_1_1483"><path fill="#fff" d="M0 0h80v80H0z"/></clipPath></defs></svg>
