<svg width="141" height="42" viewBox="0 0 141 42" fill="none" xmlns="http://www.w3.org/2000/svg">
<path fill-rule="evenodd" clip-rule="evenodd" d="M87.1718 32.8453C79.0632 38.815 67.3102 42 57.1912 42C43.0026 42 30.2293 36.7583 20.5657 28.0404C19.8065 27.3549 20.4868 26.4206 21.3978 26.9545C31.8267 33.0152 44.7215 36.6613 58.0415 36.6613C67.0248 36.6613 76.907 34.8048 85.9935 30.9525C87.3662 30.3701 88.5141 31.8503 87.1718 32.8453Z" fill="#A370F7"/>
<path fill-rule="evenodd" clip-rule="evenodd" d="M90.5429 28.993C89.5103 27.6704 83.6915 28.3681 81.0798 28.6775C80.2841 28.7746 80.1626 28.083 80.8793 27.5855C85.5137 24.3276 93.1182 25.268 94.005 26.36C94.8918 27.4581 93.7742 35.0718 89.4192 38.7058C88.7511 39.264 88.1133 38.9667 88.4109 38.2265C89.3888 35.7877 91.5815 30.3216 90.5429 28.993Z" fill="#A370F7"/>
<path fill-rule="evenodd" clip-rule="evenodd" d="M81.2619 4.58651V1.41967C81.2619 0.940403 81.6264 0.618866 82.0637 0.618866H96.2583C96.7139 0.618866 97.0783 0.94647 97.0783 1.41967V4.13151C97.0722 4.58651 96.6896 5.18105 96.0093 6.1214L88.6538 16.6108C91.3871 16.5441 94.2722 16.9505 96.7503 18.3459C97.3091 18.6613 97.4609 19.1224 97.5035 19.5774V22.9566C97.5035 23.4177 96.9932 23.9576 96.4587 23.6785C92.0916 21.3914 86.2911 21.1426 81.4624 23.7028C80.9704 23.9697 80.4541 23.4359 80.4541 22.9748V19.7655C80.4541 19.2498 80.4602 18.3701 80.9764 17.5875L89.4981 5.38125H82.0819C81.6264 5.38125 81.2619 5.05972 81.2619 4.58651Z" fill="#A370F7"/>
<path fill-rule="evenodd" clip-rule="evenodd" d="M29.4822 24.3458H25.1637C24.7506 24.3155 24.4226 24.0061 24.3923 23.6117V1.47423C24.3923 1.03135 24.7628 0.679481 25.2244 0.679481H29.2514C29.6705 0.697669 30.0045 1.01922 30.0349 1.41962V4.31346H30.1139C31.1646 1.51669 33.1386 0.212341 35.799 0.212341C38.5019 0.212341 40.1904 1.51669 41.4052 4.31346C42.4499 1.51669 44.8248 0.212341 47.3697 0.212341C49.1797 0.212341 51.1598 0.95855 52.3685 2.63297C53.7351 4.49546 53.4557 7.20122 53.4557 9.57332L53.4497 23.545C53.4497 23.9879 53.0792 24.3458 52.6176 24.3458H48.3051C47.8739 24.3155 47.5277 23.9697 47.5277 23.545V11.8119C47.5277 10.8777 47.6127 8.54804 47.4062 7.66229C47.0843 6.17595 46.1185 5.75734 44.8673 5.75734C43.8226 5.75734 42.7293 6.45501 42.2859 7.57129C41.8425 8.68757 41.885 10.5561 41.885 11.8119V23.545C41.885 23.9879 41.5145 24.3458 41.0529 24.3458H36.7405C36.3031 24.3155 35.963 23.9697 35.963 23.545L35.9569 11.8119C35.9569 9.34278 36.3639 5.7088 33.2966 5.7088C30.1928 5.7088 30.3143 9.25178 30.3143 11.8119V23.545C30.3143 23.9879 29.9438 24.3458 29.4822 24.3458Z" fill="#A370F7"/>
<path fill-rule="evenodd" clip-rule="evenodd" d="M109.299 0.212341C115.707 0.212341 119.175 5.70881 119.175 12.6977C119.175 19.45 115.342 24.8069 109.299 24.8069C103.006 24.8069 99.5807 19.3104 99.5807 12.4611C99.5807 5.56927 103.049 0.212341 109.299 0.212341ZM109.335 4.73206C106.153 4.73206 105.952 9.06371 105.952 11.7634C105.952 14.4692 105.91 20.2447 109.299 20.2447C112.646 20.2447 112.804 15.5855 112.804 12.7462C112.804 10.8777 112.725 8.64511 112.16 6.87362C111.674 5.33267 110.708 4.73206 109.335 4.73206Z" fill="#A370F7"/>
<path fill-rule="evenodd" clip-rule="evenodd" d="M127.484 24.3458H123.184C122.753 24.3155 122.406 23.9697 122.406 23.545L122.4 1.40142C122.437 0.99495 122.795 0.679481 123.232 0.679481H127.235C127.612 0.697669 127.921 0.952485 128.006 1.29829V4.68353H128.085C129.294 1.65623 130.989 0.212341 133.971 0.212341C135.909 0.212341 137.798 0.910017 139.012 2.82104C140.142 4.59253 140.142 7.57129 140.142 9.71285V23.6481C140.093 24.0364 139.735 24.3458 139.31 24.3458H134.979C134.584 24.3155 134.256 24.0243 134.214 23.6481V11.6239C134.214 9.20325 134.493 5.66027 131.511 5.66027C130.46 5.66027 129.495 6.36401 129.015 7.43176C128.407 8.78464 128.328 10.1315 128.328 11.6239V23.545C128.322 23.9879 127.946 24.3458 127.484 24.3458Z" fill="#A370F7"/>
<path fill-rule="evenodd" clip-rule="evenodd" d="M69.9463 13.7715C69.9463 15.452 69.9888 16.8534 69.1385 18.3458C68.4521 19.5592 67.3589 20.3054 66.1502 20.3054C64.492 20.3054 63.5202 19.0435 63.5202 17.181C63.5202 13.5046 66.8183 12.8372 69.9463 12.8372V13.7715ZM74.3013 24.2851C74.0158 24.5399 73.6028 24.5581 73.2809 24.3883C71.8474 23.1992 71.5863 22.6471 70.8027 21.5127C68.4339 23.9272 66.7515 24.6492 63.6842 24.6492C60.0459 24.6492 57.2216 22.4105 57.2216 17.9272C57.2216 14.4267 59.1166 12.0425 61.8256 10.8777C64.1701 9.84631 67.4439 9.66431 69.9463 9.37918V8.82104C69.9463 7.79576 70.0253 6.58241 69.4179 5.69667C68.8955 4.90192 67.8873 4.57432 66.9944 4.57432C65.3484 4.57432 63.8846 5.4176 63.5262 7.16482C63.4533 7.55309 63.1679 7.93529 62.7731 7.95349L58.5882 7.50455C58.2359 7.42569 57.8411 7.14055 57.9443 6.60061C58.904 1.52882 63.4959 0 67.6018 0C69.7034 0 72.4488 0.558141 74.1069 2.14762C76.2085 4.10718 76.008 6.72194 76.008 9.56725V16.2892C76.008 18.3094 76.8462 19.1952 77.6358 20.2872C77.9092 20.6754 77.9699 21.1426 77.6176 21.4338C76.7369 22.1679 75.1698 23.5329 74.3073 24.2973L74.3013 24.2851Z" fill="#A370F7"/>
<path fill-rule="evenodd" clip-rule="evenodd" d="M13.3318 13.7715C13.3318 15.452 13.3743 16.8534 12.5239 18.3458C11.8376 19.5592 10.7504 20.3054 9.53558 20.3054C7.87742 20.3054 6.91167 19.0435 6.91167 17.181C6.91167 13.5046 10.2098 12.8372 13.3318 12.8372V13.7715ZM17.6867 24.2851C17.4012 24.5399 16.9882 24.5581 16.6663 24.3883C15.2329 23.1992 14.9778 22.6471 14.1882 21.5127C11.8194 23.9272 10.143 24.6492 7.06959 24.6492C3.43741 24.6492 0.606995 22.4105 0.606995 17.9272C0.606995 14.4267 2.50812 12.0425 5.21099 10.8777C7.5555 9.84631 10.8293 9.66431 13.3318 9.37918V8.82104C13.3318 7.79576 13.4107 6.58241 12.8094 5.69667C12.281 4.90192 11.2727 4.57432 10.3859 4.57432C8.73991 4.57432 7.27003 5.4176 6.91167 7.16482C6.83878 7.55309 6.55331 7.93529 6.16459 7.95349L1.97362 7.50455C1.62133 7.42569 1.2326 7.14055 1.32978 6.60061C2.29553 1.52882 6.8813 0 10.9872 0C13.0888 0 15.8342 0.558141 17.4924 2.14762C19.5939 4.10718 19.3935 6.72194 19.3935 9.56725V16.2892C19.3935 18.3094 20.2317 19.1952 21.0213 20.2872C21.3007 20.6754 21.3614 21.1426 21.0091 21.4338C20.1284 22.1679 18.5614 23.5329 17.6989 24.2973L17.6867 24.2851Z" fill="#A370F7"/>
</svg>
