<svg width="24" height="24" viewBox="0 0 24 24" fill="none" xmlns="http://www.w3.org/2000/svg">
<path fill-rule="evenodd" clip-rule="evenodd" d="M14.5034 1.296L11.9999 0L9.49642 1.296L6.70942 1.719L5.44642 4.239L3.44092 6.219L3.89992 9L3.44092 11.781L5.44642 13.761L6.70942 16.281L9.49642 16.704L11.9999 18L14.5034 16.704L17.2904 16.281L18.5534 13.761L20.5589 11.781L20.0999 9L20.5589 6.219L18.5534 4.239L17.2904 1.719L14.5034 1.296ZM16.2974 3.0855L14.0324 2.742L11.9999 1.689L9.96742 2.742L7.70242 3.0855L6.67642 5.133L5.04742 6.741L5.42092 9L5.04592 11.259L6.67642 12.867L7.70242 14.9145L9.96742 15.258L11.9999 16.311L14.0339 15.258L16.2974 14.9145L17.3234 12.867L18.9524 11.259L18.5804 9L18.9524 6.741L17.3234 5.133L16.2974 3.0855Z" fill="#3D0A91"/>
<path d="M6 17.6909V23.9999L12 22.4999L18 23.9999V17.6909L14.973 18.1499L12 19.6889L9.027 18.1499L6 17.6909Z" fill="#3D0A91"/>
</svg>
