<svg width="137" height="44" viewBox="0 0 137 44" fill="none" xmlns="http://www.w3.org/2000/svg">
<path d="M17.825 15.9148V20.4546H28.7807C28.4899 22.9659 27.6173 24.8978 26.2599 26.1534C24.7087 27.6989 22.1879 29.4375 17.825 29.4375C11.1351 29.4375 5.89963 24.0284 5.89963 17.3637C5.89963 10.6989 11.0382 5.28978 17.825 5.28978C21.4123 5.28978 24.127 6.73864 26.066 8.57387L29.2655 5.38637C26.5508 2.77841 22.8666 0.75 17.825 0.75C8.61434 0.75 0.858032 8.18751 0.858032 17.3637C0.858032 26.5398 8.61434 33.9773 17.825 33.9773C22.7696 33.9773 26.5508 32.3353 29.4594 29.3409C32.465 26.3466 33.4345 22.0966 33.4345 18.7159C33.4345 17.6534 33.3376 16.6875 33.2406 15.9148H17.825Z" fill="#A370F7"/>
<path d="M46.8588 12C40.9446 12 36 16.5398 36 22.7216C36 28.9034 40.8477 33.4432 46.8588 33.4432C52.87 33.4432 57.7177 29 57.7177 22.8182C57.7177 16.5398 52.87 12 46.8588 12ZM46.8588 29.2898C43.5624 29.2898 40.7507 26.5852 40.7507 22.8182C40.7507 18.9546 43.5624 16.3466 46.8588 16.3466C50.1553 16.3466 52.9669 18.9546 52.9669 22.8182C52.9669 26.5852 50.1553 29.2898 46.8588 29.2898Z" fill="#A370F7"/>
<path d="M100.042 14.5625H99.8479C98.7814 13.3068 96.7454 12.1477 94.1276 12.1477C88.6982 12.1477 84.0444 16.7841 84.0444 22.8693C84.0444 28.858 88.6982 33.5909 94.1276 33.5909C96.7454 33.5909 98.7814 32.4318 99.8479 31.1761H100.042V32.7216C100.042 36.7784 97.8119 39 94.3215 39C91.4129 39 89.6678 36.9716 88.8921 35.1364L84.8201 36.875C85.9835 39.6761 89.183 43.25 94.4185 43.25C99.9449 43.25 104.696 39.9659 104.696 32.0455V12.7273H100.236V14.5625H100.042ZM94.6124 29.4375C91.316 29.4375 88.8921 26.6364 88.8921 22.9659C88.8921 19.1988 91.4129 16.4943 94.6124 16.4943C97.8119 16.4943 100.333 19.2954 100.333 23.0625C100.43 26.7329 97.9088 29.4375 94.6124 29.4375Z" fill="#A370F7"/>
<path d="M71.1496 12.1477C65.2354 12.1477 60.2908 16.6875 60.2908 22.8693C60.2908 29.0511 65.1385 33.5909 71.1496 33.5909C77.1607 33.5909 82.0084 29.1477 82.0084 22.9659C82.0084 16.6875 77.1607 12.1477 71.1496 12.1477ZM71.1496 29.4375C67.8532 29.4375 65.0415 26.7329 65.0415 22.9659C65.0415 19.1023 67.8532 16.4943 71.1496 16.4943C74.446 16.4943 77.2577 19.1023 77.2577 22.9659C77.2577 26.7329 74.446 29.4375 71.1496 29.4375Z" fill="#A370F7"/>
<path d="M108.283 1.23297H112.937V33.6875H108.283V1.23297Z" fill="#A370F7"/>
<path d="M127.286 29.4375C124.862 29.4375 123.214 28.375 122.05 26.1534L136.496 20.2614L136.012 19.0057C135.139 16.5909 132.327 12.1477 126.801 12.1477C121.275 12.1477 116.621 16.4943 116.621 22.8693C116.621 28.8579 121.178 33.5909 127.286 33.5909C132.231 33.5909 135.042 30.5966 136.303 28.8579L132.618 26.4432C131.358 28.2784 129.71 29.4375 127.286 29.4375ZM126.995 16.2045C128.934 16.2045 130.582 17.1704 131.067 18.5227L121.372 22.5795C121.275 18.1363 124.571 16.2045 126.995 16.2045Z" fill="#A370F7"/>
</svg>
