<svg width="25" height="24" viewBox="0 0 25 24" fill="none" xmlns="http://www.w3.org/2000/svg">
<g clip-path="url(#clip0_43_1025)">
<path fill-rule="evenodd" clip-rule="evenodd" d="M12.3361 4.12097L11.2606 3.01547C8.73613 0.420474 4.10713 1.31597 2.43613 4.57847C1.65163 6.11297 1.47463 8.32847 2.90713 11.156C4.28713 13.8785 7.15813 17.1395 12.3361 20.6915C17.5141 17.1395 20.3836 13.8785 21.7651 11.156C23.1976 8.32697 23.0221 6.11297 22.2361 4.57847C20.5651 1.31597 15.9361 0.418974 13.4116 3.01397L12.3361 4.12097ZM12.3361 22.499C-10.6634 7.30097 5.25463 -4.56103 12.0721 1.71347C12.1621 1.79597 12.2506 1.88147 12.3361 1.96997C12.4208 1.88155 12.5088 1.79649 12.6001 1.71497C19.4161 -4.56403 35.3356 7.29947 12.3361 22.499Z" fill="#3D0A91"/>
</g>
<defs>
<clipPath id="clip0_43_1025">
<rect width="24" height="24" fill="white" transform="translate(0.333374)"/>
</clipPath>
</defs>
</svg>
