<svg width="86" height="19" viewBox="0 0 86 19" fill="none" xmlns="http://www.w3.org/2000/svg">
<path d="M82.7952 14.5303C81.494 14.5303 80.8434 13.8797 80.8434 12.5785V7.80743H79.5422V5.85562H80.8434V3.47008L83.0121 2.38574V5.85562H84.9639V7.80743H83.0121V11.9279C83.0121 12.1448 83.2289 12.3616 83.4458 12.3616C83.8518 12.3616 84.747 12.3616 84.747 12.3616L85.1807 14.5303C85.1807 14.5303 84.4217 14.5303 82.7952 14.5303Z" fill="#290661"/>
<path d="M71.0844 14.5303V3.47008L73.253 2.38574V6.72309C73.8056 6.04646 74.6462 5.63875 75.6386 5.63875C76.4956 5.63875 77.2797 6.02261 77.8549 6.56391C78.4413 7.09393 78.6747 7.91326 78.6747 9.10863V14.5303H76.506V9.75923C76.506 8.48492 76.0336 7.86641 75.03 7.86641C73.9361 7.86641 73.253 8.50747 73.253 9.75923V14.5303H71.0844Z" fill="#290661"/>
<path fill-rule="evenodd" clip-rule="evenodd" d="M66.4677 15.6475C66.9075 15.4107 67.1807 14.964 67.1807 14.5302V14.0965C66.7409 14.5363 66.0296 14.7471 65.2289 14.7471C64.1576 14.7471 63.3327 14.4127 62.6786 13.6346C62.0245 12.8452 61.759 11.6476 61.759 10.1929C61.759 8.81708 62.0245 7.79867 62.6786 6.98672C63.344 6.16349 64.1576 5.63867 65.2289 5.63867C65.9958 5.63867 66.7184 6.06633 67.1807 6.50614V5.85554H69.3494V13.4459C69.3494 14.9909 69.0389 16.0873 68.4638 16.764C67.9729 17.3629 67.1438 17.825 65.8795 18.0001C63.7523 18.2947 62.1928 17.1326 62.1928 17.1326L63.0603 15.6146C63.2771 15.723 63.8193 15.964 64.5783 16.0483C65.5542 16.1567 66.0518 15.8883 66.4677 15.6475ZM67.1807 11.9278C66.8424 12.3902 66.328 12.7953 65.6627 12.7953C65.0988 12.7953 64.6296 12.4674 64.3364 12.0276C64.0432 11.5878 63.9277 10.9259 63.9277 10.1929C63.9277 9.41477 64.0432 8.89819 64.3364 8.49221C64.6408 8.07496 65.1101 7.80735 65.6627 7.80735C66.2716 7.80735 66.786 8.20118 67.1807 8.67482V11.9278Z" fill="#290661"/>
<path d="M58.0723 14.5302V5.85547H60.2389V14.5302H58.0723Z" fill="#290661"/>
<ellipse cx="59.1566" cy="3.68695" rx="1.3012" ry="1.3012" fill="#290661"/>
<path d="M53.9518 14.5303V3.47008L56.1205 2.38574V14.5303H53.9518Z" fill="#290661"/>
<path d="M47.2289 14.5302V5.85547H49.3976V7.37354C49.3976 6.72294 50.482 5.85547 51.7832 5.85547C52.426 5.85547 52.8675 5.85547 52.8675 5.85547V8.02414H51.7832C50.482 8.02414 49.3976 8.89161 49.3976 9.75908V14.5302H47.2289Z" fill="#290661"/>
<path d="M43.7591 14.5302V13.8796C43.2065 14.4322 42.5264 14.7471 41.5904 14.7471C40.6544 14.7471 39.8147 14.5537 39.217 14.0575C38.6306 13.5613 38.3374 12.8565 38.3374 11.943C38.3374 11.007 38.67 10.2966 39.3354 9.81164C40.012 9.32672 40.9061 9.08426 41.8533 9.08426C42.6089 9.08426 43.1952 9.27163 43.7591 9.54229V8.89168C43.7591 7.97824 43.2785 7.59048 42.241 7.59048C41.2937 7.59048 40.4731 7.88282 39.6386 8.45795L38.9225 6.65361C39.9261 5.97699 41.1046 5.63867 42.4579 5.63867C42.9202 5.63867 43.3262 5.67814 43.6758 5.75708C44.0366 5.83602 44.4088 5.98262 44.7922 6.19689C45.1756 6.41115 45.4688 6.75511 45.6718 7.22874C45.8861 7.69111 45.9277 8.38508 45.9277 9.08426V14.5302H43.7591ZM42.0225 12.8734C42.7104 12.8734 43.2403 12.6183 43.7591 12.1447V11.2772C43.2854 11.0855 42.8232 10.945 42.2255 10.945C41.7293 10.945 41.329 11.0296 41.0245 11.1987C40.72 11.3566 40.506 11.6047 40.506 11.943C40.506 12.2249 40.6918 12.4505 40.9399 12.6196C41.1993 12.7888 41.5601 12.8734 42.0225 12.8734Z" fill="#290661"/>
<path d="M35.3012 14.5303C34 14.5303 33.3494 13.8797 33.3494 12.5785V7.80743H32.0482V5.85562H33.3494V3.47008L35.5181 2.38574V5.85562H37.4699V7.80743H35.5181V11.9279C35.5181 12.1448 35.735 12.3616 35.9518 12.3616C36.3578 12.3616 37.0362 12.3616 37.0362 12.3616L37.6868 14.5303C37.6868 14.5303 36.9277 14.5303 35.3012 14.5303Z" fill="#290661"/>
<path d="M27.0603 14.7471C25.9551 14.7471 24.9966 14.4595 24.1846 13.8844C23.3727 13.3093 22.8444 12.509 22.5061 11.4941L24.6747 10.8435C24.9341 11.4074 25.0868 11.7327 25.5379 12.071C25.9889 12.4093 26.4964 12.5784 27.0603 12.5784C27.6467 12.5784 28.109 12.4544 28.4474 12.2063C28.7969 11.9582 29.0862 11.6611 29.0862 11.1987C29.0862 10.9619 29.0299 10.7533 28.9171 10.5729C28.8043 10.3924 28.6126 10.2289 28.342 10.0823C28.0713 9.93569 27.8288 9.82292 27.6146 9.74398C27.4116 9.65377 27.1015 9.54099 26.6842 9.40567C26.2106 9.24779 25.8497 9.12374 25.6016 9.03352C25.3648 8.94331 25.049 8.79107 24.6543 8.5768C24.2596 8.36254 23.9608 8.14827 23.7578 7.93401C23.5548 7.70847 23.3687 7.41526 23.1996 7.05439C23.0417 6.68225 22.9398 6.30663 22.9398 5.85555C22.9398 4.93083 23.1883 4.17006 23.91 3.54981C24.6318 2.9183 25.6073 2.60254 26.8365 2.60254C27.8514 2.60254 28.7028 2.85627 29.3907 3.36374C30.0899 3.87121 30.6386 4.44591 30.9639 5.20495L28.7952 6.07242C28.4231 5.23791 27.8245 4.77121 26.8434 4.77121C26.3472 4.77121 25.9581 4.87271 25.6762 5.07569C25.4056 5.26741 25.2633 5.49251 25.2633 5.85338C25.2633 6.0902 25.3761 6.30447 25.6016 6.49618C25.8272 6.67661 26.0583 6.81757 26.2952 6.91907C26.532 7.00928 26.9041 7.13897 27.4116 7.30813C27.8063 7.44345 28.1108 7.55059 28.325 7.62953C28.5393 7.70846 28.8325 7.83251 29.2047 8.00167C29.5768 8.17083 29.8644 8.34562 30.0673 8.52606C30.2816 8.70649 30.5015 8.92639 30.7271 9.18576C30.9639 9.43386 31.133 9.7327 31.2345 10.0823C31.336 10.4206 31.3976 10.8713 31.3976 11.2772C31.3976 12.3937 30.934 13.1401 30.122 13.7829C29.3213 14.4257 28.3007 14.7471 27.0603 14.7471Z" fill="#290661"/>
<path d="M3.63855 8.67448C3.63855 11.185 2.49248 13.5637 0.819275 15.1805L2.98795 17.3492C5.21048 15.1827 6.6747 12.0234 6.6747 8.67448C6.6747 7.54554 6.5083 6.43814 6.20255 5.38306C4.22953 4.8113 2.43945 3.75223 1.03359 2.38269C2.58957 3.99149 3.63855 6.27268 3.63855 8.67448Z" fill="url(#paint0_linear_43_1256)"/>
<path d="M15.3494 8.67464C15.3494 6.16415 16.4955 3.78543 18.1687 2.16862L16 -5.43594e-05C13.7775 2.1664 12.3132 5.32574 12.3132 8.67464C12.3132 9.80358 12.4796 10.911 12.7854 11.9661C14.7584 12.5378 16.5485 13.5969 17.9544 14.9664C16.3984 13.3576 15.3494 11.0764 15.3494 8.67464Z" fill="url(#paint1_linear_43_1256)"/>
<path d="M9.49397 2.81928C6.98347 2.81928 4.60476 1.6732 2.98795 -5.68775e-07L0.819272 2.16867C2.98572 4.3912 6.14507 5.85542 9.49397 5.85542C10.6229 5.85542 11.7303 5.68902 12.7854 5.38328C13.3571 3.41025 14.4162 1.62018 15.7858 0.214311C14.177 1.77029 11.8958 2.81928 9.49397 2.81928Z" fill="url(#paint2_linear_43_1256)"/>
<path d="M9.49397 14.5303C12.0045 14.5303 14.3832 15.6764 16 17.3496L18.1687 15.1809C16.0022 12.9584 12.8429 11.4942 9.49397 11.4942C8.36503 11.4942 7.25763 11.6606 6.20255 11.9663C5.63079 13.9394 4.57172 15.7294 3.20218 17.1353C4.81097 15.5793 7.09217 14.5303 9.49397 14.5303Z" fill="url(#paint3_linear_43_1256)"/>
<defs>
<linearGradient id="paint0_linear_43_1256" x1="3.74699" y1="2.16846" x2="3.74699" y2="17.3492" gradientUnits="userSpaceOnUse">
<stop stop-color="#F07319" stop-opacity="0.35"/>
<stop offset="0.5" stop-color="#F07319"/>
</linearGradient>
<linearGradient id="paint1_linear_43_1256" x1="15.241" y1="15.1807" x2="15.241" y2="-5.43594e-05" gradientUnits="userSpaceOnUse">
<stop stop-color="#F07319" stop-opacity="0.35"/>
<stop offset="0.5" stop-color="#F07319"/>
</linearGradient>
<linearGradient id="paint2_linear_43_1256" x1="16" y1="2.92771" x2="0.819272" y2="2.92771" gradientUnits="userSpaceOnUse">
<stop stop-color="#F07319" stop-opacity="0.35"/>
<stop offset="0.5" stop-color="#F07319"/>
</linearGradient>
<linearGradient id="paint3_linear_43_1256" x1="2.98795" y1="14.4219" x2="18.1687" y2="14.4219" gradientUnits="userSpaceOnUse">
<stop stop-color="#F07319" stop-opacity="0.35"/>
<stop offset="0.5" stop-color="#F07319"/>
</linearGradient>
</defs>
</svg>
