<svg xmlns="http://www.w3.org/2000/svg" width="141" height="42" fill="none"><path fill="#A370F7" fill-rule="evenodd" d="M87.17 32.85C79.07 38.8 67.31 42 57.2 42a54.29 54.29 0 0 1-36.62-13.96c-.76-.69-.08-1.62.83-1.09a73.78 73.78 0 0 0 36.64 9.71c8.98 0 18.87-1.86 27.95-5.7 1.38-.59 2.52.89 1.18 1.89Z" clip-rule="evenodd"/><path fill="#A370F7" fill-rule="evenodd" d="M90.54 29c-1.03-1.33-6.85-.63-9.46-.32-.8.1-.92-.6-.2-1.1 4.63-3.25 12.24-2.31 13.13-1.22.88 1.1-.24 8.71-4.6 12.35-.66.55-1.3.26-1-.48.98-2.44 3.17-7.9 2.13-9.24ZM81.26 4.59V1.42c0-.48.37-.8.8-.8h14.2c.45 0 .82.33.82.8v2.71c0 .46-.39 1.05-1.07 2L88.65 16.6c2.74-.07 5.62.34 8.1 1.74.56.31.71.77.75 1.23v3.38c0 .46-.5 1-1.04.72a16.37 16.37 0 0 0-15 .02c-.49.27-1-.26-1-.73v-3.2c0-.52 0-1.4.52-2.18l8.52-12.2h-7.42c-.45 0-.82-.33-.82-.8ZM29.48 24.35h-4.32a.82.82 0 0 1-.77-.74V1.47c0-.44.37-.8.83-.8h4.03c.42.03.75.35.78.75v2.9h.08c1.05-2.8 3.03-4.1 5.69-4.1 2.7 0 4.39 1.3 5.6 4.1a6.12 6.12 0 0 1 5.97-4.1c1.81 0 3.79.74 5 2.41 1.37 1.87 1.09 4.57 1.09 6.94l-.01 13.98c0 .44-.37.8-.83.8H48.3a.82.82 0 0 1-.78-.8V11.8c0-.93.08-3.26-.12-4.15-.33-1.48-1.3-1.9-2.54-1.9-1.05 0-2.14.7-2.58 1.81-.45 1.12-.4 2.99-.4 4.24v11.74c0 .44-.38.8-.84.8h-4.31a.82.82 0 0 1-.78-.8V11.8c0-2.47.4-6.1-2.66-6.1-3.1 0-2.99 3.54-2.99 6.1v11.74c0 .44-.37.8-.83.8ZM109.3.21c6.4 0 9.88 5.5 9.88 12.49 0 6.75-3.84 12.1-9.88 12.1-6.3 0-9.72-5.49-9.72-12.34 0-6.9 3.47-12.25 9.72-12.25Zm.03 4.52c-3.18 0-3.38 4.33-3.38 7.03s-.04 8.48 3.35 8.48c3.35 0 3.5-4.65 3.5-7.5 0-1.86-.08-4.1-.64-5.87-.49-1.54-1.45-2.14-2.83-2.14ZM127.48 24.35h-4.3a.82.82 0 0 1-.77-.8L122.4 1.4c.04-.4.4-.72.83-.72h4c.38.02.7.27.78.62v3.38h.08c1.2-3.02 2.9-4.47 5.88-4.47 1.94 0 3.83.7 5.04 2.61 1.13 1.77 1.13 4.75 1.13 6.9v13.93c-.05.39-.4.7-.83.7h-4.33a.82.82 0 0 1-.77-.7V11.62c0-2.42.28-5.96-2.7-5.96-1.05 0-2.01.7-2.5 1.77a9.78 9.78 0 0 0-.68 4.2v11.92c0 .44-.38.8-.85.8ZM69.95 13.77c0 1.68.04 3.08-.81 4.58-.69 1.2-1.78 1.96-2.99 1.96-1.66 0-2.63-1.27-2.63-3.13 0-3.68 3.3-4.34 6.43-4.34v.93ZM74.3 24.3a.9.9 0 0 1-1.02.1c-1.43-1.2-1.7-1.74-2.48-2.88-2.37 2.42-4.05 3.14-7.12 3.14-3.63 0-6.46-2.24-6.46-6.72 0-3.5 1.9-5.89 4.6-7.05 2.35-1.03 5.62-1.22 8.13-1.5v-.56c0-1.02.08-2.24-.53-3.12-.52-.8-1.53-1.13-2.43-1.13-1.64 0-3.1.85-3.46 2.6-.08.38-.36.77-.76.78L58.6 7.5c-.35-.07-.75-.36-.65-.9C58.9 1.53 63.5 0 67.6 0c2.1 0 4.85.56 6.5 2.15C76.2 4.1 76 6.72 76 9.57v6.72c0 2.02.85 2.9 1.64 4 .27.39.33.85-.02 1.14-.88.74-2.45 2.1-3.31 2.87v-.01ZM13.33 13.77c0 1.68.04 3.08-.8 4.58-.7 1.2-1.78 1.96-3 1.96-1.65 0-2.62-1.27-2.62-3.13 0-3.68 3.3-4.34 6.42-4.34v.93ZM17.7 24.3a.9.9 0 0 1-1.02.1c-1.44-1.2-1.7-1.74-2.48-2.88-2.37 2.42-4.05 3.14-7.12 3.14-3.63 0-6.46-2.24-6.46-6.72 0-3.5 1.9-5.89 4.6-7.05 2.35-1.03 5.62-1.22 8.12-1.5v-.56c0-1.02.08-2.24-.52-3.12-.53-.8-1.54-1.13-2.42-1.13-1.65 0-3.12.85-3.48 2.6-.07.38-.36.77-.75.78L1.97 7.5c-.35-.07-.74-.36-.64-.9C2.3 1.53 6.88 0 10.99 0c2.1 0 4.84.56 6.5 2.15 2.1 1.96 1.9 4.57 1.9 7.42v6.72c0 2.02.84 2.9 1.63 4 .28.39.34.85-.01 1.14-.88.74-2.45 2.1-3.31 2.87l-.01-.01Z" clip-rule="evenodd"/></svg>