<svg xmlns="http://www.w3.org/2000/svg" width="45" height="54" fill="none"><path fill="#A370F7" d="M43.38 18.42a12.04 12.04 0 0 0-5.82 10.27c0 4.77 2.85 9.11 7.2 10.91a28.28 28.28 0 0 1-3.71 7.62c-2.33 3.29-4.76 6.67-8.36 6.67-3.6 0-4.66-2.11-8.9-2.11-4.12 0-5.6 2.22-8.99 2.22-3.38 0-5.71-3.07-8.36-6.88a33.41 33.41 0 0 1-5.6-17.9c0-10.48 6.77-16.1 13.54-16.1 3.6 0 6.56 2.34 8.78 2.34 2.12 0 5.5-2.44 9.53-2.44 4.23-.1 8.25 1.9 10.69 5.4Zm-12.6-9.84a12.26 12.26 0 0 0 2.86-7.52c0-.32 0-.74-.1-1.06-3.07.32-5.93 1.8-7.94 4.13a11.56 11.56 0 0 0-2.97 7.3c0 .32 0 .64.11.96.21 0 .53.1.74.1a10.5 10.5 0 0 0 7.3-3.91Z"/></svg>