<svg xmlns="http://www.w3.org/2000/svg" width="96" height="50" fill="none"><path fill="#A370F7" d="M31.76 33.18H27.6v16.44h4.16V33.18ZM65.3 37.86c-.16-.07-1.54-.84-3.54-.84-2.7 0-4.54 1.84-4.54 4.38 0 2.46 1.77 4.38 4.54 4.38 1.92 0 3.3-.77 3.54-.85v4.46c-.54.07-1.93.53-3.77.53-4.7 0-8.77-3.22-8.77-8.52 0-4.92 3.69-8.53 8.77-8.53 1.92 0 3.38.46 3.77.62v4.37ZM21.83 37.86c-.15-.07-1.54-.84-3.46-.84-2.7 0-4.54 1.84-4.54 4.38 0 2.46 1.77 4.38 4.54 4.38 1.92 0 3.3-.77 3.46-.85v4.46c-.54.15-1.92.61-3.77.61-4.7 0-8.77-3.23-8.77-8.53 0-4.91 3.7-8.52 8.77-8.52 1.93 0 3.39.46 3.77.61v4.3ZM87.07 41.4a8.45 8.45 0 0 1-8.7 8.52 8.45 8.45 0 0 1-8.69-8.52 8.45 8.45 0 0 1 8.7-8.53c5.07 0 8.69 3.84 8.69 8.53Zm-8.7-4.3a4.25 4.25 0 0 0-4.3 4.3c0 2.38 1.84 4.3 4.3 4.3 2.47 0 4.31-1.92 4.31-4.3s-1.84-4.3-4.3-4.3ZM47.53 36.94c-.08 0-1.85-.53-3.23-.53-1.7 0-2.54.53-2.54 1.38 0 1 1.23 1.38 1.92 1.53l1.15.39c2.7.84 3.93 2.69 3.93 4.68 0 4.15-3.62 5.53-6.85 5.53-2.23 0-4.3-.38-4.46-.46V45.7c.38.08 2.08.61 3.92.61 2.08 0 3-.61 3-1.53 0-.85-.84-1.3-1.84-1.62-.24-.07-.62-.23-.93-.3-2.3-.77-4.23-2.08-4.23-4.84 0-3.07 2.3-5.15 6.16-5.15 2 0 3.92.46 4.07.54v3.53h-.07ZM4.9 15.51c0-1.15-.92-2.07-2.07-2.07s-2.08.92-2.08 2.07v4.3c0 1.16.93 2.08 2.08 2.08s2.08-.92 2.08-2.07v-4.3ZM16.22 9.83c0-1.15-.93-2.07-2.08-2.07-1.16 0-2.08.92-2.08 2.07v9.99c0 1.15.92 2.07 2.08 2.07 1.15 0 2.08-.92 2.08-2.07V9.83ZM27.6 2.07C27.6.92 26.68 0 25.52 0c-1.15 0-2.07.92-2.07 2.07v21.9c0 1.15.92 2.07 2.07 2.07 1.16 0 2.08-.92 2.08-2.08V2.07ZM38.91 9.83c0-1.15-.92-2.07-2.08-2.07-1.15 0-2.07.92-2.07 2.07v9.99c0 1.15.92 2.07 2.07 2.07 1.16 0 2.08-.92 2.08-2.07V9.83ZM50.22 15.51c0-1.15-.92-2.07-2.08-2.07-1.15 0-2.08.92-2.08 2.07v4.3c0 1.16.93 2.08 2.08 2.08 1.16 0 2.08-.92 2.08-2.07v-4.3ZM61.6 9.83c0-1.15-.92-2.07-2.07-2.07-1.16 0-2.08.92-2.08 2.07v9.99c0 1.15.92 2.07 2.08 2.07 1.15 0 2.07-.92 2.07-2.07V9.83ZM72.91 2.07C72.91.92 72 0 70.84 0c-1.16 0-2.08.92-2.08 2.07v21.9c0 1.15.92 2.07 2.08 2.07 1.15 0 2.07-.92 2.07-2.08V2.07ZM84.3 9.83c0-1.15-.92-2.07-2.08-2.07-1.15 0-2.08.92-2.08 2.07v9.99c0 1.15.93 2.07 2.08 2.07 1.16 0 2.08-.92 2.08-2.07V9.83ZM95.6 15.51c0-1.15-.92-2.07-2.07-2.07s-2.08.92-2.08 2.07v4.3c0 1.16.93 2.08 2.08 2.08s2.08-.92 2.08-2.07v-4.3Z"/></svg>