<svg xmlns="http://www.w3.org/2000/svg" width="137" height="44" fill="none"><path fill="#A370F7" d="M17.82 15.91v4.54h10.96c-.29 2.52-1.16 4.45-2.52 5.7-1.55 1.55-4.07 3.29-8.44 3.29-6.68 0-11.92-5.41-11.92-12.08C5.9 10.7 11.04 5.3 17.82 5.3c3.6 0 6.3 1.45 8.25 3.28l3.2-3.18A15.98 15.98 0 0 0 17.82.75C8.63.75.86 8.19.86 17.36c0 9.18 7.75 16.62 16.96 16.62 4.95 0 8.73-1.64 11.64-4.64 3-3 3.97-7.24 3.97-10.62 0-1.07-.1-2.03-.19-2.8H17.82ZM46.86 12A10.68 10.68 0 0 0 36 22.72c0 6.18 4.85 10.72 10.86 10.72S57.72 29 57.72 22.82c0-6.28-4.85-10.82-10.86-10.82Zm0 17.29c-3.3 0-6.1-2.7-6.1-6.47 0-3.87 2.8-6.47 6.1-6.47s6.1 2.6 6.1 6.47c0 3.77-2.8 6.47-6.1 6.47ZM100.04 14.56h-.2a7.55 7.55 0 0 0-5.71-2.41c-5.43 0-10.09 4.63-10.09 10.72 0 5.99 4.66 10.72 10.09 10.72a7.55 7.55 0 0 0 5.72-2.41h.2v1.54c0 4.06-2.24 6.28-5.73 6.28-2.9 0-4.65-2.03-5.43-3.86l-4.07 1.73a10.4 10.4 0 0 0 9.6 6.38c5.52 0 10.28-3.28 10.28-11.2V12.73h-4.46v1.83h-.2Zm-5.43 14.88c-3.3 0-5.72-2.8-5.72-6.47 0-3.77 2.52-6.48 5.72-6.48 3.2 0 5.72 2.8 5.72 6.57.1 3.67-2.42 6.38-5.72 6.38ZM71.15 12.15a10.68 10.68 0 0 0-10.86 10.72c0 6.18 4.85 10.72 10.86 10.72s10.86-4.44 10.86-10.62c0-6.28-4.85-10.82-10.86-10.82Zm0 17.29c-3.3 0-6.1-2.7-6.1-6.47 0-3.87 2.8-6.48 6.1-6.48s6.1 2.61 6.1 6.48c0 3.76-2.8 6.47-6.1 6.47ZM108.28 1.23h4.66V33.7h-4.66V1.23ZM127.29 29.44c-2.43 0-4.08-1.07-5.24-3.29l14.45-5.89-.49-1.25c-.87-2.42-3.68-6.86-9.2-6.86-5.53 0-10.19 4.34-10.19 10.72 0 5.99 4.56 10.72 10.67 10.72 4.94 0 7.75-3 9.01-4.73l-3.68-2.42c-1.26 1.84-2.91 3-5.33 3Zm-.3-13.24c1.94 0 3.6.97 4.08 2.32l-9.7 4.06c-.1-4.44 3.2-6.38 5.63-6.38Z"/></svg>