<svg xmlns="http://www.w3.org/2000/svg" width="136" height="38" fill="none"><path fill="#A370F7" d="m128.46 18.13 7.22 19.12c-2.12-.29-4.28-.7-6.43-1.04l-4.07-10.57-4.2 9.7c-2.03-.33-4.06-.45-6.14-.7l7.35-16.72L115.55.75h6.18l3.74 9.58 3.98-9.58h6.23l-7.22 17.38ZM110.69.75h-5.6v33.14c1.82.12 3.73.2 5.6.42V.75Zm-10.42 32.77c-5.11-.33-10.22-.67-15.4-.75V.75h5.68v26.63c3.28.08 6.56.33 9.72.5v5.64ZM78.76 13.73v5.68h-7.8V32.4H65.3V.75h15.98v5.68H70.95v7.26h7.8v.04Zm-23.04-7.3V32.7c-1.91 0-3.86 0-5.73.08V6.43h-5.9V.75h17.56v5.68h-5.93ZM37.95 19.71c-2.5 0-5.48 0-7.6.12v8.46c3.36-.25 6.68-.5 10.09-.62v5.47L24.66 34.4V.75h15.78v5.68h-10.1v7.68c2.2 0 5.61-.13 7.6-.13v5.73ZM6.3 16.5v19.91c-2.04.25-3.86.54-5.81.83V.75h5.44l7.43 20.74V.75h5.73v34.14c-2.04.33-4.07.45-6.23.74L6.3 16.51Z"/></svg>