<svg xmlns="http://www.w3.org/2000/svg" width="145" height="36" fill="none"><path fill="#A370F7" d="M27.6 21.27 20.37 9.62H15.2v16.72h5.18v-11.6l7.21 11.64h5.16V9.62h-5.23l.07 11.65Zm40.92-6V13.6h-2.7v-2.27h-5.04v2.27h-2.74v1.67h2.74v11.1h5.04v-11.1h2.7ZM35.6 26.3h5V15.23h-5v11.08Zm0-13.24h5.04V9.62H35.6v3.45Zm87.93 1.38c-4.05 0-7.36 2.8-7.36 6.21s3.3 6.21 7.36 6.21c4.05 0 7.35-2.8 7.35-6.2 0-3.42-3.3-6.22-7.35-6.22Zm2.02 8.6c0 1.77-1.03 2.48-2.02 2.48-1 0-2.06-.71-2.06-2.49v-4.68c0-1.78 1.03-2.49 2.06-2.49 1 0 2.02.71 2.02 2.49v4.68Zm-15.95-7.29a6.74 6.74 0 0 0-2.84-.99c-3.59-.32-6.4 2.88-6.4 5.82 0 3.87 2.99 5.3 3.41 5.5 1.7.79 3.88.82 5.76-.39v.64h4.94V9.66h-4.94c.07-.04.07 3.55.07 6.1Zm.07 4.97v2c0 1.7-1.17 2.16-1.99 2.16-.81 0-1.99-.46-1.99-2.17v-3.97c0-1.7 1.17-2.17 2-2.17.77 0 1.98.46 1.98 2.17v1.98Zm-57.3-6a6.2 6.2 0 0 0-4.02 1.67v-1.17h-5v11.11h5v-7.31c0-.96 1.03-2.02 2.38-2.02 1.35 0 2.31 1.1 2.31 2.02v7.31h5.01v-6.03c0-4.4-3.8-5.68-5.68-5.58Zm40.75 0a6.1 6.1 0 0 0-4.02 1.67v-1.17h-5v11.11h5v-7.31c0-.96 1.03-2.02 2.38-2.02 1.35 0 2.31 1.1 2.31 2.02v7.31h5.01v-6.03c0-4.4-3.8-5.68-5.68-5.58ZM82.63 20.8c0-3.44-3.34-6.31-7.4-6.31-4.08 0-7.38 2.8-7.38 6.2 0 3.45 3.3 6.22 7.39 6.22 3.37 0 6.25-1.95 7.1-4.54h-5v.67c0 2.02-1.36 2.49-2.07 2.49-.78 0-2.13-.47-2.13-2.49v-2.3l9.49.06Zm-9.1-3.9c.4-.6 1.03-1 1.74-1 .68 0 1.35.33 1.74 1 .32.53.32 1.2.32 2.17h-4.19c.04-.96.07-1.6.4-2.17Zm59.3-5.18c0-.54-.4-.82-1.21-.82h-1.14v2.84h.68v-1.17h.35l.53 1.17h.78l-.63-1.28c.42-.1.63-.39.63-.74Zm-1.28.39h-.36v-.82h.32c.4 0 .64.14.64.4-.04.35-.21.42-.6.42Zm.03-2.35a2.6 2.6 0 0 0-2.56 2.56 2.6 2.6 0 0 0 2.56 2.56 2.6 2.6 0 0 0 2.56-2.56 2.57 2.57 0 0 0-2.56-2.56Zm0 4.65a2.06 2.06 0 0 1-2.06-2.05c0-1.14.96-2.06 2.06-2.06 1.14 0 2.06.96 2.06 2.06s-.92 2.05-2.06 2.05ZM125.93.25H19.71C8.45.21.9 8.31.9 18.04c0 9.69 7.54 17.71 18.83 17.71H126c11.3 0 18.83-8.02 18.83-17.71-.07-9.7-7.64-17.79-18.9-17.79Zm-.03 31.17H19.74c-8.95.03-14.42-6-14.42-13.38 0-7.39 5.5-13.35 14.42-13.39H125.9c8.91 0 14.42 6 14.42 13.39 0 7.38-5.47 13.38-14.42 13.38Z"/></svg>