<svg xmlns="http://www.w3.org/2000/svg" width="74" height="40" fill="none"><path fill="#A370F7" d="M.73 16.47c-.1 1.79 0 3.61 0 5.39v17.21h9.66V23.3c0-4.9-.03-9.28 0-10.18.17-4.25 1.34-7.03 3.52-9.3l-.5-.02a12.8 12.8 0 0 0-11.28 6.88 14.06 14.06 0 0 0-1.4 5.79Z"/><path fill="#A370F7" d="M22.9 0a12.2 12.2 0 0 0-9.01 3.83c7.2 0 11.87 4.9 12.13 12.7.06 1.78.07 11.36.07 11.36v11.18h9.67V23.95c0-4.57.04-8.53-.28-11.25C34.58 5.08 29.93 0 22.9 0ZM73.87 23.53c.1-1.79 0-3.61 0-5.39V.93H64.2V16.7c0 4.9.04 9.28 0 10.18-.17 4.25-1.34 7.03-3.52 9.3l.5.01c4.72 0 9.13-2.69 11.3-6.87.93-1.82 1.28-3.79 1.4-5.79Z"/><path fill="#A370F7" d="M51.7 40c3.62 0 6.7-1.41 9-3.83-7.2 0-11.86-4.9-12.12-12.7a483.2 483.2 0 0 1-.08-11.37V.92h-9.67v15.13c0 4.57-.03 8.53.29 11.25C40 34.92 44.67 40 51.7 40Z"/></svg>