<svg xmlns="http://www.w3.org/2000/svg" width="195" height="30" fill="none"><mask id="a" width="30" height="30" x="0" y="0" maskUnits="userSpaceOnUse" style="mask-type:alpha"><path fill="#C4C4C4" fill-rule="evenodd" d="M14.94 30c8.26 0 14.95-6.72 14.95-15 0-8.28-6.7-15-14.95-15A14.97 14.97 0 0 0 0 15c0 8.28 6.69 15 14.94 15Zm7.47-27.99L8.27 14.6l5.18 3-5.98 10.39L21.61 15.4l-5.17-3L22.4 2.01Z" clip-rule="evenodd"/></mask><g mask="url(#a)"><path fill="url(#b)" d="M22.41 2a15.03 15.03 0 0 1 5.47 20.5 14.91 14.91 0 0 1-20.4 5.49L22.4 2.01Z"/><path fill="url(#c)" d="M7.47 28A15.03 15.03 0 0 1 2 7.5a14.91 14.91 0 0 1 20.41-5.49L7.47 27.99Z"/></g><path fill="#290661" d="M41.02 23.25 37.36 5.92h3.66l1.79 9.25.1.6.08.62a11.78 11.78 0 0 1 .22-1.23l2.26-9.24h3.08l2.27 9.22a13.63 13.63 0 0 1 .22 1.25 44.94 44.94 0 0 1 .2-1.15l1.83-9.32h3.65L53 23.25h-3.3l-2.54-9.91-.11-.45-.08-.58a6.33 6.33 0 0 1-.18 1.02l-2.47 9.92h-3.3ZM62.2 23.55a6.01 6.01 0 0 1-3.18-.8 5.28 5.28 0 0 1-2.04-2.3 8.09 8.09 0 0 1-.72-3.54c0-1.35.25-2.52.73-3.51a5.35 5.35 0 0 1 2.06-2.29c.89-.54 1.93-.8 3.14-.8 1.05 0 2 .21 2.84.65a4.7 4.7 0 0 1 2 1.98c.5.88.76 2 .76 3.36l-.01.84c-.01.32-.04.64-.08.96h-8.12c.02.52.13.97.34 1.35.23.38.53.68.92.9a3.83 3.83 0 0 0 2.96.01c.43-.21.85-.55 1.25-1L67 21.33a6.08 6.08 0 0 1-4.8 2.2Zm-2.58-8.05h4.91c-.04-.48-.17-.9-.37-1.25a1.9 1.9 0 0 0-.8-.78 2.57 2.57 0 0 0-1.24-.27c-.67 0-1.23.2-1.7.6-.44.4-.71.96-.8 1.7ZM75.4 23.55c-.56 0-1.04-.1-1.42-.3-.39-.2-.73-.54-1.03-.99v.99h-3.39V6.91l3.4-1.53v6.18c.29-.4.66-.72 1.1-.93.45-.22.94-.32 1.5-.32 1.02 0 1.93.28 2.7.84.8.56 1.41 1.33 1.86 2.32.44 1 .66 2.14.66 3.44 0 2.1-.48 3.72-1.43 4.9a4.84 4.84 0 0 1-3.96 1.74Zm-.4-3.27c.76 0 1.35-.3 1.76-.88.42-.58.63-1.41.63-2.49 0-1.07-.2-1.9-.63-2.47-.4-.58-1-.87-1.76-.87-.43 0-.83.09-1.2.25-.36.17-.64.4-.85.68v4.86c.23.3.5.54.83.7.32.15.73.22 1.22.22ZM91.95 23.25V9.34h-4.93V5.92h13.42v3.42H95.5v13.91h-3.55ZM105.06 23.55a6.01 6.01 0 0 1-3.17-.8 5.28 5.28 0 0 1-2.05-2.3 8.09 8.09 0 0 1-.72-3.54c0-1.35.25-2.52.73-3.51a5.35 5.35 0 0 1 2.06-2.29c.89-.54 1.94-.8 3.15-.8 1.04 0 1.98.21 2.83.65a4.7 4.7 0 0 1 2 1.98c.51.88.76 2 .76 3.36l-.01.84c0 .32-.03.64-.08.96h-8.12c.02.52.13.97.35 1.35.22.38.52.68.9.9a3.82 3.82 0 0 0 2.96.01c.44-.21.86-.55 1.27-1l1.94 1.98a6.08 6.08 0 0 1-4.8 2.2Zm-2.58-8.05h4.92c-.05-.48-.18-.9-.37-1.25a1.9 1.9 0 0 0-.82-.78 2.57 2.57 0 0 0-1.23-.27c-.67 0-1.23.2-1.69.6-.45.4-.72.96-.81 1.7ZM112.45 23.25V10.6h3.39v1.17a4 4 0 0 1 1.36-1.12 3.8 3.8 0 0 1 1.65-.34c.75 0 1.38.14 1.9.44a3 3 0 0 1 1.2 1.34c.42-.58.97-1.02 1.63-1.33.68-.3 1.43-.45 2.27-.45 1.61 0 2.81.41 3.6 1.25.79.83 1.18 2.1 1.18 3.82v7.87h-3.39v-6.66c0-1.05-.15-1.82-.46-2.3-.32-.48-.82-.72-1.5-.72-.49 0-.88.1-1.18.31-.3.2-.51.51-.65.94-.14.43-.21 1-.21 1.69v6.74h-3.4v-6.66a4.3 4.3 0 0 0-.46-2.3c-.3-.48-.8-.72-1.5-.72-.72 0-1.24.23-1.56.68-.32.46-.48 1.2-.48 2.23v6.77h-3.39ZM133.13 28.27V10.6h3.39v.9c.62-.8 1.5-1.2 2.61-1.2 1.09 0 2.02.27 2.8.81a5.03 5.03 0 0 1 1.8 2.28c.42.99.63 2.17.63 3.55a8.4 8.4 0 0 1-.67 3.46 5.4 5.4 0 0 1-1.83 2.32 4.7 4.7 0 0 1-2.77.83c-.55 0-1.04-.1-1.47-.3-.43-.2-.8-.49-1.1-.87v4.36l-3.4 1.53Zm5.43-7.99c.77 0 1.36-.3 1.77-.88.42-.58.63-1.4.63-2.46 0-1.08-.21-1.91-.62-2.49-.41-.58-1-.88-1.78-.88-.44 0-.83.08-1.16.23-.32.14-.62.36-.88.66v4.88c.15.28.4.5.79.68.38.17.8.26 1.25.26ZM146.37 23.25V6.91l3.39-1.53v17.87h-3.4ZM156.18 23.55a4.65 4.65 0 0 1-3.28-1.12 3.9 3.9 0 0 1-1.21-3 3.77 3.77 0 0 1 2.4-3.6 6.28 6.28 0 0 1 2.64-.52c.53 0 1.05.04 1.55.13.51.1.94.22 1.3.38v-.75c0-.63-.2-1.1-.58-1.42-.38-.33-.93-.5-1.65-.5-.62 0-1.26.11-1.91.34-.65.22-1.32.56-2.01 1.01l-1.04-2.64a9.82 9.82 0 0 1 5.29-1.56c1.75 0 3.06.41 3.93 1.23.87.82 1.3 2.04 1.3 3.66v8.06h-3.33v-.97c-.4.42-.9.73-1.48.95-.58.21-1.22.32-1.92.32Zm.83-2.85a3.7 3.7 0 0 0 2.57-1.01v-1.27a4.76 4.76 0 0 0-1.09-.33 6.5 6.5 0 0 0-1.2-.11c-.72 0-1.28.13-1.7.38-.4.25-.6.6-.6 1.05 0 .4.18.73.53.96.36.22.85.33 1.5.33ZM168.55 23.55c-1.06 0-1.84-.28-2.36-.84-.5-.57-.76-1.42-.76-2.55V13.6h-1.78v-3h1.78V7l3.36-1.61v5.22h2.78v3h-2.78v6.05c0 .32.07.56.21.73.15.16.38.23.68.23.62 0 1.3-.17 2.03-.53l-.38 2.9c-.38.18-.8.32-1.27.42-.46.1-.96.15-1.51.15ZM178.6 23.55a6 6 0 0 1-3.16-.8 5.28 5.28 0 0 1-2.05-2.3 8.1 8.1 0 0 1-.71-3.54c0-1.35.24-2.52.72-3.51a5.36 5.36 0 0 1 2.06-2.29c.89-.54 1.94-.8 3.15-.8 1.04 0 1.98.21 2.83.65a4.7 4.7 0 0 1 2.01 1.98c.5.88.75 2 .75 3.36l-.01.84c0 .32-.03.64-.07.96h-8.13c.02.52.13.97.35 1.35.22.38.52.68.91.9a3.83 3.83 0 0 0 2.96.01c.43-.21.85-.55 1.26-1l1.94 1.98a6.08 6.08 0 0 1-4.8 2.2Zm-2.57-8.05h4.92c-.05-.48-.17-.9-.37-1.25a1.9 1.9 0 0 0-.82-.78 2.57 2.57 0 0 0-1.23-.27c-.66 0-1.23.2-1.69.6-.45.4-.72.96-.81 1.7ZM190 23.55a6.86 6.86 0 0 1-2.9-.65 5.54 5.54 0 0 1-2.19-1.74l2.17-1.85c.42.43.9.78 1.45 1.04.56.27 1.08.4 1.58.4.58 0 1.02-.1 1.33-.27a.9.9 0 0 0 .25-1.38 2.55 2.55 0 0 0-.81-.54c-.4-.19-.97-.42-1.7-.7a8.14 8.14 0 0 1-3.03-1.68 3.22 3.22 0 0 1-.87-2.31c0-1.06.43-1.92 1.28-2.57a5.33 5.33 0 0 1 3.35-1c.93 0 1.8.18 2.6.54.8.35 1.48.87 2.05 1.54l-2.18 1.82a3.5 3.5 0 0 0-2.54-1.1c-.45 0-.82.09-1.1.26-.28.17-.42.38-.42.65 0 .26.17.5.51.73.34.21.97.46 1.91.75.99.3 1.79.64 2.4 1.03a3.5 3.5 0 0 1 1.81 3.14c0 1.21-.44 2.17-1.32 2.86a5.76 5.76 0 0 1-3.63 1.03Z"/><defs><linearGradient id="b" x1="7.41" x2="22.59" y1="27.99" y2="1.94" gradientUnits="userSpaceOnUse"><stop offset=".4" stop-color="#F07319"/><stop offset=".6" stop-color="#F07319"/><stop offset="1" stop-color="#FFBF1B"/></linearGradient><linearGradient id="c" x1="22.47" x2="7.29" y1="2.01" y2="28.06" gradientUnits="userSpaceOnUse"><stop offset=".4" stop-color="#F07319"/><stop offset=".6" stop-color="#F07319"/><stop offset="1" stop-color="#FFBF1B"/></linearGradient></defs></svg>